<?xml version="1.0" encoding="utf-8"?>
<!-- Generator: Adobe Illustrator 19.1.0, SVG Export Plug-In . SVG Version: 6.00 Build 0)  -->
<!DOCTYPE svg PUBLIC "-//W3C//DTD SVG 1.1//EN" "http://www.w3.org/Graphics/SVG/1.1/DTD/svg11.dtd">
<svg version="1.1" id="Layer_1" xmlns="http://www.w3.org/2000/svg" xmlns:xlink="http://www.w3.org/1999/xlink" x="0px" y="0px"
	 viewBox="0 0 285.9 120.1" enable-background="new 0 0 285.9 120.1" xml:space="preserve">
<g>
	<path fill="#FFFFFF" d="M46,64.9c0,0-0.3,0.2-1,0.2s-1-0.2-1-0.2v-23c0-5.4-2.7-7.7-7.9-7.7c-4.3,0-8.7,3-10.8,8v22.8
		c0,0-0.3,0.2-1,0.2c-0.7,0-1-0.2-1-0.2V19.5c0,0,0.3-0.2,1-0.2c0.7,0,1,0.2,1,0.2v19c2.5-3.8,6.4-6.2,11.4-6.2c5.7,0,9.2,3.5,9.2,9
		V64.9z"/>
	<path fill="#FFFFFF" d="M59.7,33.2c0,0,0.3-0.2,1-0.2c0.7,0,1,0.2,1,0.2v23c0,5.4,2.7,7.7,7.9,7.7c4.2,0,8.7-2.9,10.8-8V33.2
		c0,0,0.3-0.2,1-0.2c0.7,0,1,0.2,1,0.2v31.7c0,0-0.3,0.2-1,0.2c-0.7,0-1-0.2-1-0.2v-5.4c-2.6,3.8-6.5,6.2-11.4,6.2
		c-5.7,0-9.2-3.5-9.2-9V33.2z"/>
	<path fill="#FFFFFF" d="M96.9,49c0,9.8,3.6,14.6,11.2,14.6c3.9,0,6.3-1.4,6.3-1.4c0.5,0.3,0.8,1,0.9,1.6c0,0-2.9,1.8-7.8,1.8
		c-8,0-12.6-5.8-12.6-16.7c0-10.9,4.6-16.7,12.6-16.7c4.6,0,7.1,1.4,7.1,1.4c0,0.7-0.2,1.3-0.7,1.7c0,0-2.3-1.2-5.9-1.2
		C100.3,34.3,96.9,39.3,96.9,49z"/>
	<path fill="#FFFFFF" d="M128.5,47.4h7.5l10-14.2c0,0,0.4-0.2,1.3-0.2c0.9,0,1,0.1,1,0.1l-10.6,15.1l12.1,16.7c0,0-0.3,0.2-1.2,0.2
		c-0.9,0-1.3-0.2-1.3-0.2L136,49.2h-7.5v15.7c0,0-0.2,0.2-1,0.2c-0.7,0-1-0.2-1-0.2V19.5c0,0,0.2-0.2,1-0.2c0.7,0,1,0.2,1,0.2V47.4z
		"/>
	<path fill="#FFFFFF" d="M168.5,32.4c4.6,0,7.7,1.3,7.7,1.3c0.1,0.5-0.2,1.3-0.7,1.6c0,0-3-1.1-6.8-1.1c-5.7,0-8.7,2.4-8.7,6.9
		c0,4,3.7,5.5,7.5,6.5c4.8,1.3,10.2,2.6,10.2,9.2c0,5.4-3.5,8.8-10.6,8.8c-5.7,0-9.2-1.9-9.2-1.9c-0.1-0.5,0.2-1.2,0.6-1.5
		c0,0,4,1.6,8.4,1.6c4.8,0,8.7-2,8.7-6.9c0-5.1-4.3-6.1-8.6-7.3c-4.4-1.2-9.1-3-9.1-8.5C158,36,161.5,32.4,168.5,32.4z"/>
	<path fill="#FFFFFF" d="M193.3,34.8v19.8c0,6.3,1.5,9.3,7,9.3c2,0,3.6-0.4,3.6-0.4s0.2,0.3,0.2,0.9s-0.1,0.8-0.1,0.8
		s-1.6,0.5-4.1,0.5c-6.7,0-8.5-4.1-8.5-11.1V34.8h-4.9c0,0-0.2-0.2-0.2-0.9c0-0.7,0.2-0.9,0.2-0.9h4.9v-6.2c0.5-0.4,1.2-0.6,2-0.5
		V33h9.8c0,0,0.2,0.2,0.2,0.9c0,0.7-0.2,0.9-0.2,0.9H193.3z"/>
	<path fill="#FFFFFF" d="M214.6,49.7c0.4,9.9,3.8,14,10.9,14c5.1,0,7.9-2.4,7.9-2.4c0.5,0.3,1,1,1,1.6c0,0-3.2,2.8-9.5,2.8
		c-7.9,0-12.3-5.8-12.3-16.8c0-11.5,5.2-16.5,12.5-16.5c7.3,0,10.9,4.8,10.9,11.2c0,3.7-0.7,6.1-0.7,6.1H214.6z M225.1,34.2
		c-6.2,0-10.2,4.1-10.4,13.7h18.9c0,0,0.4-1.7,0.4-4.6C233.9,38.5,231.4,34.2,225.1,34.2z"/>
	<path fill="#FFFFFF" d="M259.5,32.4c3.2,0,5.1,1.3,5.1,1.3c-0.1,0.7-0.4,1.3-1,1.6c-1.5-0.7-2.6-1.1-4.6-1.1
		c-3.5,0-6.4,3.7-8.8,8.3v22.3c0,0-0.2,0.2-1,0.2c-0.7,0-1-0.2-1-0.2V33.2c0,0,0.2-0.2,1-0.2c0.7,0,1,0.2,1,0.2v6.1
		C253.4,33.5,256.9,32.4,259.5,32.4z"/>
</g>
<g>
	<path fill="#FFFFFF" d="M34.5,83c0.6,0,0.9,0.1,0.9,0.1v13.3c0,0-0.2,0.1-0.7,0.1S34,96.5,34,96.5v-8c0-1.6,0-3.1,0.1-3.8H34
		c-0.2,0.5-0.7,1.6-1.3,2.8l-3.1,5.6c0,0-0.2,0.1-0.5,0.1c-0.3,0-0.4-0.1-0.4-0.1c-1-1.8-2-3.7-3-5.5c-0.6-1.1-1.2-2.3-1.3-2.8h-0.1
		c0.1,0.5,0.2,2,0.2,3.7v8.1c0,0-0.2,0.1-0.6,0.1c-0.4,0-0.6-0.1-0.6-0.1V83.2c0,0,0.3-0.1,0.8-0.1c0.5,0,0.8,0.1,0.8,0.1l3.3,6
		c0.5,0.9,0.8,1.7,1,2.1h0.1c0.1-0.2,0.3-0.7,0.6-1.4c1.2-2.2,2.5-4.5,3.7-6.7C33.8,83.1,34.1,83,34.5,83z"/>
	<path fill="#FFFFFF" d="M48.3,83c0.1,0.2,0.1,0.3,0.1,0.6c0,0.2,0,0.4-0.1,0.6h-6.1v4.9h5.1c0.1,0.2,0.1,0.4,0.1,0.5
		c0,0.2,0,0.4-0.1,0.6h-5.1v5.1h6.3c0.1,0.2,0.1,0.4,0.1,0.6s0,0.4-0.1,0.6h-7.7V83H48.3z"/>
	<path fill="#FFFFFF" d="M53.2,83.2c0,0,0.2-0.1,0.7-0.1c0.5,0,0.7,0.1,0.7,0.1v12.2h5.9c0,0.1,0.1,0.4,0.1,0.6
		c0,0.3-0.1,0.5-0.1,0.6h-7.3V83.2z"/>
	<path fill="#FFFFFF" d="M69.4,83c2.6,0,3.6,1.6,3.6,3.6c0,1.9-1.1,2.7-1.6,3c0.5,0.2,2,0.9,2,3.2c0,2.2-1.3,3.7-4,3.7h-4.9V83H69.4
		z M69.1,89.2c1.8,0,2.5-1,2.5-2.5c0-1.5-0.7-2.5-2.5-2.5h-3.1v5H69.1z M69.3,95.4c2,0,2.8-1,2.8-2.6c0-1.8-0.9-2.6-2.8-2.6h-3.2
		v5.2H69.3z"/>
	<path fill="#FFFFFF" d="M82.9,82.9c3.2,0,5.2,2.1,5.2,7s-2,7-5.2,7c-3.2,0-5.2-2.1-5.2-7C77.7,85,79.7,82.9,82.9,82.9z M82.9,84
		c-2.3,0-3.7,1.4-3.7,5.8s1.4,5.8,3.7,5.8s3.7-1.4,3.7-5.8S85.2,84,82.9,84z"/>
	<path fill="#FFFFFF" d="M102,92.2c0,3-1.8,4.6-4.6,4.6c-2.8,0-4.6-1.7-4.6-4.6v-9c0,0,0.2-0.1,0.7-0.1c0.5,0,0.7,0.1,0.7,0.1v9.2
		c0,2,1.2,3.2,3.2,3.2c2,0,3.2-1.2,3.2-3.2v-9.2c0,0,0.2-0.1,0.7-0.1s0.7,0.1,0.7,0.1V92.2z"/>
	<path fill="#FFFFFF" d="M112.1,83c2.4,0,3.9,1.5,3.9,3.9c0,1.9-1,3.3-2.7,3.7l3.3,5.9c0,0-0.3,0.1-0.8,0.1s-0.8-0.1-0.8-0.1
		l-3.2-5.7h-2.9v5.7c0,0-0.2,0.1-0.7,0.1c-0.5,0-0.7-0.1-0.7-0.1V83H112.1z M108.8,89.6h3.1c1.6,0,2.6-1,2.6-2.7
		c0-1.7-1-2.7-2.6-2.7h-3.1V89.6z"/>
	<path fill="#FFFFFF" d="M123.2,86.9c-0.7-1.1-1-2.1-1-2.1h-0.1c0,0,0.1,1,0.1,2.9v8.8c0,0-0.2,0.1-0.7,0.1c-0.4,0-0.6-0.1-0.6-0.1
		V83.2c0,0,0.3-0.1,0.8-0.1c0.6,0,0.8,0.1,0.8,0.1l5.5,9.5c0.6,1.1,1.1,2.2,1.1,2.2h0.1c0,0-0.1-1.2-0.1-2.8v-8.8
		c0,0,0.2-0.1,0.7-0.1c0.5,0,0.6,0.1,0.6,0.1v13.3c0,0-0.2,0.1-0.8,0.1c-0.6,0-0.8-0.1-0.8-0.1L123.2,86.9z"/>
	<path fill="#FFFFFF" d="M143.4,83c0.1,0.2,0.1,0.3,0.1,0.6c0,0.2,0,0.4-0.1,0.6h-6.1v4.9h5.1c0.1,0.2,0.1,0.4,0.1,0.5
		c0,0.2,0,0.4-0.1,0.6h-5.1v5.1h6.3c0.1,0.2,0.1,0.4,0.1,0.6s0,0.4-0.1,0.6h-7.7V83H143.4z"/>
	<path fill="#FFFFFF" d="M149.3,96.5c0,0-0.3,0.1-0.8,0.1c-0.5,0-0.8-0.1-0.8-0.1v-1.4c0,0,0.2-0.1,0.8-0.1c0.5,0,0.8,0.1,0.8,0.1
		V96.5z"/>
	<path fill="#FFFFFF" d="M158.1,83c3.5,0,5.5,1.7,5.5,6.8c0,5.1-1.9,6.8-5.5,6.8h-3.9V83H158.1z M158,95.4c2.6,0,4.1-1.1,4.1-5.6
		c0-4.5-1.5-5.6-4.1-5.6h-2.4v11.2H158z"/>
	<path fill="#FFFFFF" d="M176,83c0.1,0.2,0.1,0.3,0.1,0.6c0,0.2,0,0.4-0.1,0.6h-6.1v4.9h5.1c0.1,0.2,0.1,0.4,0.1,0.5
		c0,0.2,0,0.4-0.1,0.6h-5.1v5.1h6.3c0.1,0.2,0.1,0.4,0.1,0.6s0,0.4-0.1,0.6h-7.7V83H176z"/>
	<path fill="#FFFFFF" d="M180.8,83.2c0,0,0.2-0.1,0.7-0.1c0.5,0,0.7,0.1,0.7,0.1v12.2h5.9c0,0.1,0.1,0.4,0.1,0.6
		c0,0.3-0.1,0.5-0.1,0.6h-7.3V83.2z"/>
	<path fill="#FFFFFF" d="M192.3,83.2c0,0,0.2-0.1,0.7-0.1c0.5,0,0.7,0.1,0.7,0.1v13.3c0,0-0.2,0.1-0.7,0.1c-0.5,0-0.7-0.1-0.7-0.1
		V83.2z"/>
	<path fill="#FFFFFF" d="M202.8,93.2c0.3,1,0.5,1.7,0.5,1.7h0.1c0,0,0.1-0.8,0.5-1.7l3.6-10c0,0,0.2-0.1,0.7-0.1
		c0.5,0,0.7,0.1,0.7,0.1l-4.7,13.3c0,0-0.3,0.1-0.8,0.1c-0.5,0-0.8-0.1-0.8-0.1l-4.7-13.3c0,0,0.2-0.1,0.8-0.1
		c0.5,0,0.7,0.1,0.7,0.1L202.8,93.2z"/>
	<path fill="#FFFFFF" d="M220.3,83c0.1,0.2,0.1,0.3,0.1,0.6c0,0.2,0,0.4-0.1,0.6h-6.1v4.9h5.1c0.1,0.2,0.1,0.4,0.1,0.5
		c0,0.2,0,0.4-0.1,0.6h-5.1v5.1h6.3c0.1,0.2,0.1,0.4,0.1,0.6s0,0.4-0.1,0.6h-7.7V83H220.3z"/>
	<path fill="#FFFFFF" d="M229.9,83c2.4,0,3.9,1.5,3.9,3.9c0,1.9-1,3.3-2.7,3.7l3.3,5.9c0,0-0.3,0.1-0.8,0.1s-0.8-0.1-0.8-0.1
		l-3.2-5.7h-2.9v5.7c0,0-0.2,0.1-0.7,0.1c-0.5,0-0.7-0.1-0.7-0.1V83H229.9z M226.6,89.6h3.1c1.6,0,2.6-1,2.6-2.7
		c0-1.7-1-2.7-2.6-2.7h-3.1V89.6z"/>
	<path fill="#FFFFFF" d="M246.2,83c0.1,0.2,0.1,0.3,0.1,0.6c0,0.2,0,0.4-0.1,0.6h-6.1v4.9h5.1c0.1,0.2,0.1,0.4,0.1,0.5
		c0,0.2,0,0.4-0.1,0.6h-5.1v5.1h6.3c0.1,0.2,0.1,0.4,0.1,0.6s0,0.4-0.1,0.6h-7.7V83H246.2z"/>
	<path fill="#FFFFFF" d="M255,83c3.5,0,5.5,1.7,5.5,6.8c0,5.1-1.9,6.8-5.5,6.8h-3.9V83H255z M254.9,95.4c2.6,0,4.1-1.1,4.1-5.6
		c0-4.5-1.5-5.6-4.1-5.6h-2.4v11.2H254.9z"/>
</g>
</svg>
