<?xml version="1.0" encoding="utf-8"?>
<!-- Generator: Adobe Illustrator 19.1.0, SVG Export Plug-In . SVG Version: 6.00 Build 0)  -->
<!DOCTYPE svg PUBLIC "-//W3C//DTD SVG 1.1//EN" "http://www.w3.org/Graphics/SVG/1.1/DTD/svg11.dtd">
<svg version="1.1" id="Layer_1" xmlns="http://www.w3.org/2000/svg" xmlns:xlink="http://www.w3.org/1999/xlink" x="0px" y="0px"
	 viewBox="0 0 285.9 120.1" enable-background="new 0 0 285.9 120.1" xml:space="preserve">
<g>
	<g>
		<path d="M46,64.9c0,0-0.3,0.2-1,0.2s-1-0.2-1-0.2v-23c0-5.4-2.7-7.7-7.9-7.7c-4.3,0-8.7,3-10.8,8v22.8c0,0-0.3,0.2-1,0.2
			c-0.7,0-1-0.2-1-0.2V19.5c0,0,0.3-0.2,1-0.2c0.7,0,1,0.2,1,0.2v19c2.5-3.8,6.4-6.2,11.4-6.2c5.7,0,9.2,3.5,9.2,9V64.9z"/>
		<path d="M59.7,33.2c0,0,0.3-0.2,1-0.2c0.7,0,1,0.2,1,0.2v23c0,5.4,2.7,7.7,7.9,7.7c4.2,0,8.7-2.9,10.8-8V33.2c0,0,0.3-0.2,1-0.2
			c0.7,0,1,0.2,1,0.2v31.7c0,0-0.3,0.2-1,0.2c-0.7,0-1-0.2-1-0.2v-5.4c-2.6,3.8-6.5,6.2-11.4,6.2c-5.7,0-9.2-3.5-9.2-9V33.2z"/>
		<path d="M96.9,49c0,9.8,3.6,14.6,11.2,14.6c3.9,0,6.3-1.4,6.3-1.4c0.5,0.3,0.8,1,0.9,1.6c0,0-2.9,1.8-7.8,1.8
			c-8,0-12.6-5.8-12.6-16.7c0-10.9,4.6-16.7,12.6-16.7c4.6,0,7.1,1.4,7.1,1.4c0,0.7-0.2,1.3-0.7,1.7c0,0-2.3-1.2-5.9-1.2
			C100.3,34.3,96.9,39.3,96.9,49z"/>
		<path d="M128.5,47.4h7.5l10-14.2c0,0,0.4-0.2,1.3-0.2c0.9,0,1,0.1,1,0.1l-10.6,15.1l12.1,16.7c0,0-0.3,0.2-1.2,0.2
			c-0.9,0-1.3-0.2-1.3-0.2L136,49.2h-7.5v15.7c0,0-0.2,0.2-1,0.2c-0.7,0-1-0.2-1-0.2V19.5c0,0,0.2-0.2,1-0.2c0.7,0,1,0.2,1,0.2V47.4
			z"/>
		<path d="M168.5,32.4c4.6,0,7.7,1.3,7.7,1.3c0.1,0.5-0.2,1.3-0.7,1.6c0,0-3-1.1-6.8-1.1c-5.7,0-8.7,2.4-8.7,6.9
			c0,4,3.7,5.5,7.5,6.5c4.8,1.3,10.2,2.6,10.2,9.2c0,5.4-3.5,8.8-10.6,8.8c-5.7,0-9.2-1.9-9.2-1.9c-0.1-0.5,0.2-1.2,0.6-1.5
			c0,0,4,1.6,8.4,1.6c4.8,0,8.7-2,8.7-6.9c0-5.1-4.3-6.1-8.6-7.3c-4.4-1.2-9.1-3-9.1-8.5C158,36,161.5,32.4,168.5,32.4z"/>
		<path d="M193.3,34.8v19.8c0,6.3,1.5,9.3,7,9.3c2,0,3.6-0.4,3.6-0.4s0.2,0.3,0.2,0.9s-0.1,0.8-0.1,0.8s-1.6,0.5-4.1,0.5
			c-6.7,0-8.5-4.1-8.5-11.1V34.8h-4.9c0,0-0.2-0.2-0.2-0.9c0-0.7,0.2-0.9,0.2-0.9h4.9v-6.2c0.5-0.4,1.2-0.6,2-0.5V33h9.8
			c0,0,0.2,0.2,0.2,0.9c0,0.7-0.2,0.9-0.2,0.9H193.3z"/>
		<path d="M214.6,49.7c0.4,9.9,3.8,14,10.9,14c5.1,0,7.9-2.4,7.9-2.4c0.5,0.3,1,1,1,1.6c0,0-3.2,2.8-9.5,2.8
			c-7.9,0-12.3-5.8-12.3-16.8c0-11.5,5.2-16.5,12.5-16.5c7.3,0,10.9,4.8,10.9,11.2c0,3.7-0.7,6.1-0.7,6.1H214.6z M225.1,34.2
			c-6.2,0-10.2,4.1-10.4,13.7h18.9c0,0,0.4-1.7,0.4-4.6C233.9,38.5,231.4,34.2,225.1,34.2z"/>
		<path d="M259.5,32.4c3.2,0,5.1,1.3,5.1,1.3c-0.1,0.7-0.4,1.3-1,1.6c-1.5-0.7-2.6-1.1-4.6-1.1c-3.5,0-6.4,3.7-8.8,8.3v22.3
			c0,0-0.2,0.2-1,0.2c-0.7,0-1-0.2-1-0.2V33.2c0,0,0.2-0.2,1-0.2c0.7,0,1,0.2,1,0.2v6.1C253.4,33.5,256.9,32.4,259.5,32.4z"/>
	</g>
	<g>
		<path d="M34.6,85.7c0-1.3,0.1-2,0.1-2h0c0,0-0.2,0.5-0.7,1.3l-4.5,7.7c0,0-0.1,0.1-0.3,0.1c-0.2,0-0.3-0.1-0.3-0.1L24.6,85
			c-0.4-0.7-0.7-1.3-0.7-1.3h0c0,0,0.1,0.7,0.1,2.1v10.6c0,0-0.1,0.1-0.3,0.1s-0.3-0.1-0.3-0.1V83.1c0,0,0.2-0.1,0.4-0.1
			s0.4,0.1,0.4,0.1l4.4,7.9c0.4,0.6,0.5,1,0.5,1h0c0,0,0.2-0.4,0.6-1l4.6-7.9c0,0,0.1-0.1,0.4-0.1c0.3,0,0.4,0.1,0.4,0.1v13.4
			c0,0-0.1,0.1-0.3,0.1s-0.3-0.1-0.3-0.1V85.7z"/>
		<path d="M41.1,83.1h7.2c0,0.1,0.1,0.2,0.1,0.3s0,0.2-0.1,0.3h-6.6v5.8h5.7c0,0.1,0.1,0.2,0.1,0.3c0,0.1,0,0.2-0.1,0.3h-5.7v6h6.8
			c0,0.1,0.1,0.2,0.1,0.3c0,0.1,0,0.2-0.1,0.3h-7.4V83.1z"/>
		<path d="M53.5,83.1c0,0,0.1-0.1,0.3-0.1c0.2,0,0.3,0.1,0.3,0.1V96h6.2c0,0,0.1,0.1,0.1,0.3s-0.1,0.3-0.1,0.3h-6.9V83.1z"/>
		<path d="M64.8,96.6V83.1h4.4c2.8,0,3.6,1.7,3.6,3.5c0,2.5-1.6,3.1-1.8,3.2c0.1,0,2.2,0.4,2.2,3.3c0,2.1-1.1,3.6-4,3.6H64.8z
			 M65.4,89.5h3.6c2.3,0,3.1-1.2,3.1-2.9c0-1.7-0.7-2.9-3.1-2.9h-3.6V89.5z M65.4,90.1V96h3.8c2.5,0,3.3-1.1,3.3-3c0-2-1-3-3.4-3
			H65.4z"/>
		<path d="M77.8,89.8c0-4.9,1.9-7,5-7c3.1,0,5,2.1,5,7s-1.9,7-5,7C79.7,96.8,77.8,94.7,77.8,89.8z M78.5,89.8c0,4.6,1.7,6.4,4.3,6.4
			s4.3-1.8,4.3-6.4s-1.7-6.4-4.3-6.4S78.5,85.2,78.5,89.8z"/>
		<path d="M101.6,92.4c0,2.8-1.7,4.4-4.3,4.4c-2.6,0-4.3-1.6-4.3-4.4v-9.3c0,0,0.1-0.1,0.3-0.1c0.2,0,0.3,0.1,0.3,0.1v9.4
			c0,2.4,1.4,3.7,3.7,3.7c2.3,0,3.7-1.4,3.7-3.7v-9.4c0,0,0.1-0.1,0.3-0.1c0.2,0,0.3,0.1,0.3,0.1V92.4z"/>
		<path d="M108.1,96.5c0,0-0.1,0.1-0.3,0.1s-0.3-0.1-0.3-0.1V83.1h4.4c2.3,0,3.7,1.5,3.7,3.7c0,2.2-1.4,3.7-3.7,3.7h-4.1v-0.6h4.1
			c1.8,0,3-1.1,3-3.1s-1.1-3.1-3-3.1h-3.8V96.5z M116,96.5c0,0-0.1,0.1-0.4,0.1c-0.2,0-0.4-0.1-0.4-0.1l-3.2-6.1l0.7-0.2L116,96.5z"
			/>
		<path d="M122.3,85.5c-0.6-1-0.9-1.6-0.9-1.6h0c0,0,0.1,0.7,0.1,2.4v10.2c0,0-0.1,0.1-0.3,0.1c-0.2,0-0.3-0.1-0.3-0.1V83.1
			c0,0,0.1-0.1,0.4-0.1s0.4,0.1,0.4,0.1l6.7,10.9c0.6,0.9,0.9,1.7,0.9,1.7h0c0,0-0.1-0.9-0.1-2.3V83.1c0,0,0.1-0.1,0.3-0.1
			c0.2,0,0.3,0.1,0.3,0.1v13.4c0,0-0.1,0.1-0.4,0.1c-0.3,0-0.4-0.1-0.4-0.1L122.3,85.5z"/>
		<path d="M135.7,83.1h7.2c0,0.1,0.1,0.2,0.1,0.3s0,0.2-0.1,0.3h-6.6v5.8h5.7c0,0.1,0.1,0.2,0.1,0.3c0,0.1,0,0.2-0.1,0.3h-5.7v6h6.8
			c0,0.1,0.1,0.2,0.1,0.3c0,0.1,0,0.2-0.1,0.3h-7.4V83.1z"/>
		<path d="M148.4,96.5c0,0-0.2,0.1-0.5,0.1s-0.5-0.1-0.5-0.1v-0.8c0,0,0.2-0.1,0.5-0.1s0.5,0.1,0.5,0.1V96.5z"/>
		<path d="M153.7,96.6V83.1h3.6c3.6,0,5.4,1.5,5.4,6.8s-1.8,6.8-5.4,6.8H153.7z M154.3,83.7V96h2.8c3.1,0,4.8-1.3,4.8-6.2
			c0-4.9-1.7-6.2-4.8-6.2H154.3z"/>
		<path d="M167.9,83.1h7.2c0,0.1,0.1,0.2,0.1,0.3s0,0.2-0.1,0.3h-6.6v5.8h5.7c0,0.1,0.1,0.2,0.1,0.3c0,0.1,0,0.2-0.1,0.3h-5.7v6h6.8
			c0,0.1,0.1,0.2,0.1,0.3c0,0.1,0,0.2-0.1,0.3h-7.4V83.1z"/>
		<path d="M180.3,83.1c0,0,0.1-0.1,0.3-0.1c0.2,0,0.3,0.1,0.3,0.1V96h6.2c0,0,0.1,0.1,0.1,0.3s-0.1,0.3-0.1,0.3h-6.9V83.1z"/>
		<path d="M191.6,83.1c0,0,0.1-0.1,0.3-0.1s0.3,0.1,0.3,0.1v13.4c0,0-0.1,0.1-0.3,0.1s-0.3-0.1-0.3-0.1V83.1z"/>
		<path d="M201.5,94.6c0.2,0.6,0.3,1.1,0.3,1.1h0c0,0,0.1-0.4,0.3-1l4.2-11.5c0,0,0.1-0.1,0.3-0.1c0.2,0,0.3,0.1,0.3,0.1l-4.9,13.4
			c0,0-0.1,0.1-0.3,0.1c-0.2,0-0.3-0.1-0.3-0.1l-4.9-13.4c0,0,0.1-0.1,0.3-0.1c0.2,0,0.3,0.1,0.3,0.1L201.5,94.6z"/>
		<path d="M211.4,83.1h7.2c0,0.1,0.1,0.2,0.1,0.3s0,0.2-0.1,0.3H212v5.8h5.7c0,0.1,0.1,0.2,0.1,0.3c0,0.1,0,0.2-0.1,0.3H212v6h6.8
			c0,0.1,0.1,0.2,0.1,0.3c0,0.1,0,0.2-0.1,0.3h-7.4V83.1z"/>
		<path d="M224.4,96.5c0,0-0.1,0.1-0.3,0.1s-0.3-0.1-0.3-0.1V83.1h4.4c2.3,0,3.7,1.5,3.7,3.7c0,2.2-1.4,3.7-3.7,3.7h-4.1v-0.6h4.1
			c1.8,0,3-1.1,3-3.1s-1.1-3.1-3-3.1h-3.8V96.5z M232.3,96.5c0,0-0.1,0.1-0.4,0.1c-0.2,0-0.4-0.1-0.4-0.1l-3.2-6.1l0.7-0.2
			L232.3,96.5z"/>
		<path d="M237.2,83.1h7.2c0,0.1,0.1,0.2,0.1,0.3s0,0.2-0.1,0.3h-6.6v5.8h5.7c0,0.1,0.1,0.2,0.1,0.3c0,0.1,0,0.2-0.1,0.3h-5.7v6h6.8
			c0,0.1,0.1,0.2,0.1,0.3c0,0.1,0,0.2-0.1,0.3h-7.4V83.1z"/>
		<path d="M249.6,96.6V83.1h3.6c3.6,0,5.4,1.5,5.4,6.8s-1.8,6.8-5.4,6.8H249.6z M250.2,83.7V96h2.8c3.1,0,4.8-1.3,4.8-6.2
			c0-4.9-1.7-6.2-4.8-6.2H250.2z"/>
		<path d="M263.7,96.5c0,0-0.2,0.1-0.5,0.1s-0.5-0.1-0.5-0.1v-0.8c0,0,0.2-0.1,0.5-0.1s0.5,0.1,0.5,0.1V96.5z"/>
	</g>
</g>
</svg>
