<?xml version="1.0" encoding="utf-8"?>
<!-- Generator: Adobe Illustrator 19.1.0, SVG Export Plug-In . SVG Version: 6.00 Build 0)  -->
<!DOCTYPE svg PUBLIC "-//W3C//DTD SVG 1.1//EN" "http://www.w3.org/Graphics/SVG/1.1/DTD/svg11.dtd">
<svg version="1.1" id="Layer_1" xmlns="http://www.w3.org/2000/svg" xmlns:xlink="http://www.w3.org/1999/xlink" x="0px" y="0px"
	 viewBox="0 0 285.9 282.7" enable-background="new 0 0 285.9 282.7" xml:space="preserve">
<g>
	<g>
		<path d="M255.4,273.1H30.5c-10.8,0-19.7-8.8-19.7-19.7V29.3c0-10.8,8.8-19.7,19.7-19.7h224.8c10.8,0,19.7,8.8,19.7,19.7v224.1
			C275,264.3,266.2,273.1,255.4,273.1z M30.5,14.5c-8.2,0-14.8,6.6-14.8,14.8v224.1c0,8.2,6.6,14.8,14.8,14.8h224.8
			c8.2,0,14.8-6.6,14.8-14.8V29.3c0-8.2-6.6-14.8-14.8-14.8H30.5z"/>
	</g>
	<g>
		<g>
			<path d="M167.7,247.7c-7.6,0-15.2-5.3-15.2-15.5l0-177.9c0-8.2-5.1-11.8-10.1-11.8c-5,0-10.3,3.7-10.3,11.8l0,177.9
				c0,10.1-7.5,15.4-15,15.4c-7.5,0-15.1-5.3-15.1-15.4l0-104.6c0-7.1-5.3-10.4-10.2-10.4c-5.1,0-10.2,3.2-10.2,10.4l0,104.6
				c0,10-7.6,15.3-15.1,15.3s-15.1-5.2-15.1-15.3l0-142.4c0-1.3,1.1-2.4,2.4-2.4s2.4,1.1,2.4,2.4l0,142.4c0,7.2,5.1,10.4,10.2,10.4
				s10.2-3.2,10.2-10.4l0-104.6c0-10,7.6-15.2,15-15.2c7.5,0,15.1,5.2,15.1,15.2l0,104.6c0,7.2,5.3,10.5,10.3,10.5
				c5,0,10.1-3.3,10.1-10.5l0-177.9c0-11,7.6-16.7,15.2-16.7c9.8,0,15,8.4,15,16.7l0,177.9c0,7.3,5.4,10.7,10.4,10.7
				c5,0,10-3.3,10-10.7l0-104.6c0-10,7.6-15.3,15.1-15.3c7.5,0,15.1,5.2,15.1,15.3l0,104.6c0,7.2,5.1,10.4,10.2,10.4
				s10.2-3.2,10.2-10.4l0-104.5c0,0,0-0.1,0-0.1v-90c0-1,0.6-1.9,1.5-2.2c0.9-0.4,1.9-0.2,2.6,0.5c0.4,0.4,10.3,10.3,15.3,26.8
				c4.6,15.1,5.8,38.7-14.6,65.8v103.8c0,10-7.6,15.3-15.1,15.3c-7.5,0-15.1-5.2-15.1-15.3l0-104.6c0-7.2-5.1-10.4-10.2-10.4
				c-5.1,0-10.2,3.2-10.2,10.4l0,104.6C182.6,242.8,174.9,247.7,167.7,247.7z M233.1,44.2l0,75.7c12.2-18.7,15.6-37.5,9.9-56
				C240.4,55.2,236.2,48.4,233.1,44.2z"/>
		</g>
		<g>
			<path d="M53.9,92.1c-4.9,0-9.2-1.8-12.6-5.3c-4.5-4.7-6.2-11.3-6-15.8c0.3-6.3,3.2-32.6,3.3-33.7c0.1-1.3,1.3-2.3,2.7-2.2
				c1.3,0.1,2.3,1.3,2.2,2.7c0,0.3-3,27.3-3.3,33.5c-0.2,3.5,1.4,8.8,4.6,12.2c2.4,2.5,5.4,3.8,9,3.8c1.3,0,2.4,1.1,2.4,2.4
				S55.3,92.1,53.9,92.1z"/>
		</g>
		<g>
			<path d="M53.9,92.1c-1.3,0-2.4-1.1-2.4-2.4s1.1-2.4,2.4-2.4c3.6,0,6.6-1.3,9-3.8c3.3-3.5,4.8-8.8,4.6-12.2
				c-0.3-6.1-3.3-33.2-3.3-33.5c-0.1-1.3,0.8-2.5,2.2-2.7c1.3-0.1,2.5,0.8,2.7,2.2c0.1,1.1,3,27.5,3.3,33.7c0.2,4.5-1.5,11.1-6,15.8
				C63.2,90.3,58.8,92.1,53.9,92.1z"/>
		</g>
		<g>
			<path d="M70,73.5H37.8c-1.3,0-2.4-1.1-2.4-2.4s1.1-2.4,2.4-2.4H70c1.3,0,2.4,1.1,2.4,2.4S71.4,73.5,70,73.5z"/>
		</g>
		<g>
			<path d="M53.9,73.5c-1.3,0-2.4-1.1-2.4-2.4V37.5c0-1.3,1.1-2.4,2.4-2.4s2.4,1.1,2.4,2.4v33.6C56.4,72.4,55.3,73.5,53.9,73.5z"/>
		</g>
	</g>
</g>
</svg>
