<?xml version="1.0" standalone="no"?>
<!DOCTYPE svg PUBLIC "-//W3C//DTD SVG 1.1//EN" "http://www.w3.org/Graphics/SVG/1.1/DTD/svg11.dtd" >
<svg xmlns="http://www.w3.org/2000/svg">
<metadata></metadata>
<defs>
<font id="globerlight" horiz-adv-x="1310" >
<font-face units-per-em="2048" ascent="1536" descent="-512" />
<missing-glyph horiz-adv-x="526" />
<glyph unicode="&#xfb01;" horiz-adv-x="1128" d="M84 1047q0 10 1.5 17.5t2.5 9.5l2 3h131v123q0 83 17 142t57 104.5t111 67.5t174 22q81 0 167.5 -14t132.5 -28l46 -13q3 -15 -2.5 -32t-16.5 -26q-16 6 -45.5 14.5t-112.5 23t-159 14.5q-89 0 -148.5 -16t-93.5 -50.5t-47.5 -81.5t-13.5 -117v-133h606h10h33v-1071 q-8 -6 -33 -6q-11 0 -19.5 1.5t-11.5 2.5l-2 2v1010h-583v-1010q-8 -6 -33 -6q-11 0 -19.5 1.5t-10.5 2.5l-3 2v1010h-131q-6 8 -6 31z" />
<glyph unicode="&#xfb02;" horiz-adv-x="1132" d="M84 1047q0 10 1.5 17.5t2.5 9.5l2 3h131v123q0 78 16.5 137t54.5 105t105 70t162 24q90 0 184.5 -17.5t143.5 -34.5l49 -18v-1460q-8 -6 -33 -6q-11 0 -19.5 1.5t-11.5 2.5l-2 2v1419q-148 50 -301 50q-159 0 -220.5 -65t-61.5 -200v-133h274q6 -7 6 -30q0 -9 -1.5 -16.5 t-3.5 -10.5l-1 -4h-274v-1010q-8 -6 -33 -6q-11 0 -19.5 1.5t-10.5 2.5l-3 2v1010h-131q-6 8 -6 31z" />
<glyph horiz-adv-x="2048" />
<glyph horiz-adv-x="2048" />
<glyph unicode="&#xd;" horiz-adv-x="2048" />
<glyph unicode=" "  horiz-adv-x="526" />
<glyph unicode="&#x09;" horiz-adv-x="526" />
<glyph unicode="&#xa0;" horiz-adv-x="526" />
<glyph unicode="!" horiz-adv-x="487" d="M199 6v86q12 6 45 6q15 0 26 -1.5t15 -2.5l4 -2v-86q-12 -6 -45 -6q-15 0 -26 1.5t-15 2.5zM209 1468v3q7 4 35 4q38 -1 35 -7l-11 -1155q-6 -8 -24 -8q-9 0 -15 2t-8 4l-2 2z" />
<glyph unicode="&#x22;" horiz-adv-x="602" d="M160 1468q12 7 35 7q11 0 19.5 -1.5t11.5 -3.5l3 -2l-14 -391q-6 -4 -20 -4l-21 4zM373 1468q10 7 35 7q11 0 19.5 -1.5t11.5 -3.5l3 -2l-14 -391q-6 -4 -20 -4l-21 4z" />
<glyph unicode="#" horiz-adv-x="1333" d="M98 334q0 19 6 31h242l150 530h-220q-6 12 -6 31q0 18 6 30h236l90 314q15 6 33 6q21 0 33 -6l-90 -314h364l90 314q15 6 33 6q21 0 33 -6l-90 -314h217q6 -12 6 -30q0 -16 -6 -31h-234l-149 -530h211q6 -12 6 -31q0 -16 -6 -31h-230l-82 -295q-9 -8 -34 -8q-10 0 -18 2 t-11 4l-2 2l82 295h-365l-82 -295q-10 -8 -35 -8q-10 0 -17.5 2t-10.5 4l-2 2l82 295h-224q-6 12 -6 31zM412 365h364l150 530h-365z" />
<glyph unicode="$" horiz-adv-x="1144" d="M135 72q-2 14 4.5 31t16.5 24q20 -6 55 -15t133 -24.5t186 -15.5q199 0 307.5 72t108.5 214q0 63 -22.5 111t-61.5 77.5t-91 53.5t-110.5 37.5t-120 30.5t-120 32.5t-110.5 42.5t-91 61t-61.5 89t-22.5 125q0 151 105.5 243.5t298.5 104.5l-11 244q12 6 39 6 q13 0 23 -1.5t14 -2.5l4 -2l-12 -242q99 0 186 -11t124 -23l38 -11q4 -37 -20 -55q-138 37 -320 37q-198 0 -297.5 -74.5t-99.5 -208.5q0 -58 24.5 -104t50 -72t91.5 -52.5t96 -35.5t117 -30q106 -27 161 -45.5t129.5 -59t108 -105.5t33.5 -158q0 -155 -112 -249.5 t-310 -104.5l12 -264q-10 -6 -39 -6q-14 0 -24 1.5t-13 2.5l-4 2l11 262q-108 0 -209 17t-148 34z" />
<glyph unicode="%" horiz-adv-x="1521" d="M115 1061q0 354 260 354q262 0 262 -354t-262 -354q-127 0 -193.5 84t-66.5 270zM186 1061q0 -158 48.5 -224.5t140.5 -66.5t140 66.5t48 224.5q0 293 -188 293q-91 0 -140 -68t-49 -225zM326 -14l796 1446q12 6 41 6q12 0 22 -1.5t13 -2.5l4 -2l-796 -1446 q-15 -6 -44 -6q-10 0 -19 1.5t-13 2.5zM887 334q0 354 260 354q262 0 262 -354t-262 -354q-127 0 -193.5 84t-66.5 270zM958 334q0 -158 48.5 -224.5t140.5 -66.5t140 66.5t48 224.5q0 293 -188 293q-91 0 -140 -68t-49 -225z" />
<glyph unicode="&#x26;" horiz-adv-x="1300" d="M113 326q0 66 23 126.5t55.5 103t77.5 81t80 59.5t71 39q-72 167 -72 318q0 169 82 264.5t236 95.5q127 0 199.5 -72t72.5 -172q0 -63 -21.5 -118t-55.5 -98t-93.5 -87.5t-117.5 -78.5t-146 -80q133 -269 407 -467q116 134 166 325q46 0 66 -30q-44 -171 -182 -332 q118 -79 270 -144q3 -40 -29 -61q-148 58 -289 156q-11 -13 -28.5 -29t-57 -43.5t-84.5 -48.5t-112 -37t-139 -16q-76 0 -142 20.5t-120 60.5t-85.5 108.5t-31.5 156.5zM188 330q0 -135 85.5 -212t226.5 -77q202 0 364 147q-137 102 -245 229.5t-175 262.5 q-41 -21 -78.5 -48t-81 -70t-70 -103.5t-26.5 -128.5zM418 1059q0 -149 61 -295q97 51 159 89t118.5 86.5t83 101.5t26.5 116q0 90 -55 142.5t-154 52.5q-112 0 -175.5 -76t-63.5 -217z" />
<glyph unicode="'" horiz-adv-x="389" d="M160 1468q10 7 35 7q11 0 19.5 -1.5t11.5 -3.5l3 -2l-14 -391q-6 -4 -20 -4l-21 4z" />
<glyph unicode="(" horiz-adv-x="579" d="M137 655q0 122 17.5 243t45.5 217.5t61.5 185t67 152.5t61.5 112t46 72l17 24q12 2 28 -8q7 -4 12.5 -10t6.5 -9l2 -4q-12 -16 -32 -45t-70.5 -127t-89.5 -204.5t-71 -269.5t-32 -329t30.5 -327t73.5 -273t86.5 -200t74.5 -131l30 -43q-5 -13 -21 -23q-7 -4 -14 -6 t-11 -2h-3q-7 9 -18 25t-44 70t-63 113t-66.5 151t-62.5 186.5t-44 216t-18 243.5z" />
<glyph unicode=")" horiz-adv-x="579" d="M78 -319q12 16 32 45t70.5 127t89.5 204t71 269t32 329q0 121 -16.5 240t-42.5 212.5t-57 179t-62.5 146.5t-57.5 106.5t-43 68.5l-16 22q4 13 20 23q7 4 14.5 6t11.5 2h3q13 -17 34 -48t75.5 -134t96 -213t75.5 -277t34 -334q0 -122 -17.5 -243t-45 -217.5t-61 -185 t-67.5 -152.5t-61.5 -111.5t-45.5 -71.5l-17 -24q-13 -2 -29 8q-7 4 -12 10t-6 10z" />
<glyph unicode="*" horiz-adv-x="722" d="M141 1262q0 29 17 49l178 -58v183q8 4 26 4l25 -4v-183l178 58q17 -17 17 -49l-181 -58l115 -157q-22 -22 -41 -29l-115 153l-110 -155q-24 9 -43 28l112 160z" />
<glyph unicode="+" horiz-adv-x="954" d="M133 594q0 10 1.5 18t3.5 10l1 3h307v307q8 6 31 6q10 0 18 -1.5t11 -2.5l2 -2v-307h307q6 -8 6 -31q0 -10 -1.5 -18t-3.5 -10l-1 -3h-307v-307q-8 -6 -31 -6q-10 0 -18 1.5t-11 2.5l-2 2v307h-307q-6 8 -6 31z" />
<glyph unicode="," horiz-adv-x="421" d="M131 -168q6 6 16 18.5t29 56.5t23 93q-11 0 -20.5 1.5t-12.5 2.5l-4 2v86q16 6 49 6q15 0 27 -1.5t17 -2.5l5 -2v-65q0 -40 -10 -77.5t-24 -62t-28 -43.5t-24 -28l-10 -9z" />
<glyph unicode="-" horiz-adv-x="724" d="M172 594q0 10 1.5 18t2.5 10l2 3h369q6 -8 6 -31q0 -10 -1.5 -18t-3.5 -10l-1 -3h-369q-6 8 -6 31z" />
<glyph unicode="." horiz-adv-x="405" d="M154 6v86q16 6 49 6q15 0 27 -1.5t17 -2.5l5 -2v-86q-16 -6 -49 -6q-15 0 -27 1.5t-17 2.5z" />
<glyph unicode="/" horiz-adv-x="870" d="M51 -90l694 1620q12 6 37 6q12 0 21.5 -1.5t12.5 -2.5l3 -2l-694 -1620q-14 -6 -41 -6q-10 0 -18.5 1.5t-11.5 2.5z" />
<glyph unicode="0" horiz-adv-x="1271" d="M156 696q0 371 120.5 544t358.5 173q240 0 361.5 -171.5t121.5 -545.5q0 -373 -121.5 -544.5t-361.5 -171.5q-239 0 -359 171t-120 545zM227 696q0 -338 100 -496.5t308 -158.5q212 0 312 158t100 497q0 340 -100 498t-312 158q-208 0 -308 -158.5t-100 -497.5z" />
<glyph unicode="1" horiz-adv-x="792" d="M84 1061q130 34 241 118t183 207q8 7 31 7q10 0 17.5 -1.5t9.5 -3.5l3 -2v-1380q-7 -6 -34 -6q-8 0 -14 0.5t-9.5 1.5t-5.5 2t-3 2h-1v981q0 163 8 289q-69 -102 -177 -172t-231 -103q-25 21 -18 60z" />
<glyph unicode="2" horiz-adv-x="1081" d="M125 137q0 52 7 97.5t22 83t31.5 68t43 58.5t49 48.5t57 43.5t59 38.5t64 38.5t62.5 38q18 12 56.5 35.5t55.5 34.5t49.5 32.5t48 34.5t40 35t36.5 39t28 41.5t22.5 48t12 52.5t5.5 61q0 287 -335 287q-80 0 -165 -16.5t-130 -33.5l-45 -16q-24 18 -21 53q16 8 46.5 20.5 t128 33t198.5 20.5q85 0 154 -19t124.5 -58.5t86 -108t30.5 -160.5q0 -48 -10 -90.5t-24 -76t-44 -68.5t-55.5 -59.5t-74 -58t-84 -55.5t-99.5 -61q-17 -10 -57 -33.5t-62 -37t-59 -39.5t-59 -47.5t-48.5 -54.5t-41 -66t-25 -77t-10.5 -93l4 -84h723q6 -8 6 -33 q0 -11 -1.5 -19.5t-2.5 -11.5l-2 -2h-783q-12 65 -12 137z" />
<glyph unicode="3" horiz-adv-x="1048" d="M115 45q0 13 6 29t14 22q1 0 23.5 -7t29 -9t30.5 -8.5t37 -9t38.5 -7t46 -6.5t47 -4t53.5 -2q108 0 186.5 24.5t122.5 68.5t64.5 99.5t20.5 124.5q0 83 -25 145.5t-63.5 98.5t-93.5 58.5t-106 30t-110 7.5h-92q-6 8 -6 31q0 10 1.5 18t2.5 11l2 2h92q359 0 359 307 q0 133 -85 209t-253 76q-76 0 -150 -13.5t-111 -26.5l-36 -14q-12 6 -19.5 21t-5.5 29q15 7 43.5 17.5t114.5 28t170 17.5q196 0 297.5 -92t101.5 -240q0 -133 -54 -222t-177 -128q270 -75 270 -383q0 -72 -24 -135t-75 -116.5t-143 -85t-215 -31.5q-88 0 -170.5 16.5 t-120.5 32.5z" />
<glyph unicode="4" horiz-adv-x="1173" d="M84 410q0 10 1.5 17.5t2.5 10.5l2 2l696 946q10 7 37 7q11 0 19.5 -1.5t11.5 -3.5l2 -2v-946h219q6 -7 6 -30q0 -10 -1.5 -18t-3.5 -10l-1 -3h-219v-373q-10 -6 -35 -6q-11 0 -19.5 1.5t-11.5 2.5l-2 2v373h-698q-6 8 -6 31zM170 440h618v842z" />
<glyph unicode="5" horiz-adv-x="1056" d="M121 31q-3 14 2.5 30t15.5 23q123 -43 279 -43q222 0 328 81t106 251q0 59 -10.5 107t-39 93.5t-74 76t-118.5 49t-170 18.5q-55 0 -115 -5.5t-93 -11.5l-33 -6v699h665q6 -10 6 -33q0 -10 -1.5 -18.5t-2.5 -11.5l-2 -3h-598v-561q80 14 189 14q469 0 469 -407 q0 -393 -496 -393q-94 0 -170.5 12.5t-106.5 25.5z" />
<glyph unicode="6" horiz-adv-x="1130" d="M150 526q0 210 52 372t148 266t224.5 161t289.5 68q8 -12 8 -29t-6 -29q-542 -54 -628 -592q172 109 362 109q89 0 162 -25t129.5 -76t87.5 -136.5t31 -198.5q0 -207 -118.5 -321.5t-311.5 -114.5q-196 0 -313 135.5t-117 410.5zM221 518q0 -239 98 -358t261 -119 q161 0 259.5 96.5t98.5 278.5q0 186 -92.5 280.5t-249.5 94.5q-188 0 -369 -129q-6 -68 -6 -144z" />
<glyph unicode="7" horiz-adv-x="1013" d="M80 1360q0 10 1.5 18.5t2.5 11.5l2 3h827q7 0 7 -41q0 -106 -29 -200.5t-76 -170t-103.5 -150.5t-112.5 -158t-103 -174.5t-76 -218.5t-29 -274q-10 -6 -33 -6q-10 0 -19 1.5t-13 2.5l-4 2q0 148 27.5 276.5t72 222.5t99 177t110 157t102 145.5t79 159.5t38.5 183h-764 q-6 10 -6 33z" />
<glyph unicode="8" horiz-adv-x="1193" d="M145 322q0 70 23.5 136.5t56 112.5t77.5 88t77 64t65 41q-119 58 -185 134.5t-66 195.5q0 146 108 232.5t291 86.5q185 0 293 -87.5t108 -233.5q0 -61 -18 -117.5t-44 -96.5t-62 -76t-64.5 -57t-59.5 -38q69 -30 118.5 -61t95 -75.5t69 -105t23.5 -135.5 q0 -160 -119.5 -255t-341.5 -95q-212 0 -328.5 96.5t-116.5 245.5zM215 330q0 -128 96.5 -207.5t286.5 -79.5q181 0 282 80t101 205q0 45 -12 84t-29.5 68.5t-50.5 58.5t-60.5 47.5t-74.5 41.5t-77 36t-84.5 35t-82.5 34q-24 -13 -50 -29t-73.5 -55t-82.5 -81.5t-62 -106.5 t-27 -131zM262 1098q0 -71 26 -124t91.5 -96.5t108 -63.5t141.5 -60l51 -21q39 22 74 49.5t76.5 71.5t66.5 104.5t25 128.5q0 123 -89.5 193t-240.5 70q-150 0 -240 -69t-90 -183z" />
<glyph unicode="9" horiz-adv-x="1130" d="M121 977q0 207 118.5 321.5t311.5 114.5q196 0 313 -136t117 -411q0 -210 -52 -372t-148.5 -266t-225 -160.5t-289.5 -67.5q-8 11 -8 29q0 16 6 28q544 54 627 592q-166 -108 -361 -108q-89 0 -162 25t-129 76t-87 136.5t-31 198.5zM193 977q0 -186 92.5 -280.5 t249.5 -94.5q80 0 163 26.5t126.5 51.5t78.5 51q6 67 6 143q0 239 -97.5 358.5t-260.5 119.5q-161 0 -259.5 -96.5t-98.5 -278.5z" />
<glyph unicode=":" horiz-adv-x="442" d="M172 6v86q16 6 49 6q15 0 27 -1.5t17 -2.5l5 -2v-86q-16 -6 -49 -6q-15 0 -27 1.5t-17 2.5zM172 815v86q16 6 49 6q15 0 27 -1.5t17 -3.5l5 -1v-86q-16 -6 -49 -6q-15 0 -27 1.5t-17 3.5z" />
<glyph unicode=";" horiz-adv-x="483" d="M168 -168q6 6 16 18.5t29 56.5t23 93q-11 0 -20.5 1.5t-13.5 2.5l-3 2v86q16 6 49 6q15 0 27 -1.5t17 -2.5l5 -2v-65q0 -40 -10 -77.5t-24 -62t-28 -43.5t-24 -28l-10 -9zM199 815v86q16 6 49 6q15 0 27 -1.5t17 -3.5l5 -1v-86q-16 -6 -49 -6q-15 0 -27 1.5t-17 3.5z" />
<glyph unicode="&#x3c;" horiz-adv-x="970" d="M127 594q0 12 1.5 23t3.5 15l1 5l655 303q7 -8 7 -33q0 -11 -1.5 -20t-3.5 -12l-2 -3l-604 -280l604 -275q7 -11 7 -36q0 -10 -1.5 -19t-3.5 -12l-2 -4l-655 303q-6 16 -6 45z" />
<glyph unicode="=" horiz-adv-x="1044" d="M180 424q0 10 1.5 18t2.5 10l2 3h672q6 -8 6 -31q0 -10 -1.5 -18t-2.5 -10l-2 -3h-672q-6 6 -6 31zM180 764q0 10 1.5 18t2.5 10l2 3h672q6 -8 6 -31q0 -10 -1.5 -18t-2.5 -10l-2 -3h-672q-6 8 -6 31z" />
<glyph unicode="&#x3e;" horiz-adv-x="970" d="M178 281q0 11 1.5 20t2.5 13l2 3l604 275l-604 280q-6 10 -6 35q0 11 1.5 19.5t2.5 11.5l2 2l656 -303q6 -16 6 -43q0 -13 -1.5 -24t-2.5 -16l-2 -5l-656 -303q-6 12 -6 35z" />
<glyph unicode="?" horiz-adv-x="880" d="M92 1350q14 7 39.5 17.5t106.5 28t165 17.5q95 0 167 -26t114 -71t63 -100t21 -120q0 -83 -21.5 -149t-56 -111t-76 -84.5t-83.5 -79.5t-76.5 -86.5t-56 -116t-21.5 -156.5q-11 -8 -31 -8q-8 0 -15 2t-11 4l-3 2q0 96 21 172.5t54.5 125.5t73.5 90t80.5 78t74 77.5 t54.5 100.5t21 135q0 114 -71.5 186t-227.5 72q-77 0 -147.5 -13t-102.5 -26l-32 -13q-12 7 -18.5 22.5t-4.5 29.5zM299 6v86q16 6 49 6q15 0 27 -1.5t17 -2.5l5 -2v-86q-16 -6 -49 -6q-15 0 -27 1.5t-17 2.5z" />
<glyph unicode="@" horiz-adv-x="1875" d="M143 571q0 185 60 339.5t165.5 260t252 164t317.5 58.5q248 0 427.5 -99.5t269 -272.5t89.5 -400q0 -208 -86.5 -327.5t-248.5 -119.5q-74 0 -127 38t-74 116q-75 -154 -264 -154q-69 0 -126 21t-103.5 65.5t-72.5 123t-26 185.5q0 108 26 187.5t72.5 124t103.5 65.5 t126 21q174 0 252 -131v125q10 6 28 6l33 -6v-510q0 -224 156 -224q53 0 99.5 22t85.5 67.5t62 123.5t23 181q0 328 -193 523t-532 195q-157 0 -291.5 -54t-232.5 -152t-153.5 -243t-55.5 -319q0 -189 57.5 -335.5t157 -236t226.5 -134.5t274 -45q316 0 577 178 q31 -10 31 -43q-258 -193 -623 -193q-158 0 -294.5 51t-241.5 149t-165.5 254.5t-60.5 354.5zM664 569q0 -97 22 -166t61 -106t85 -53.5t102 -16.5q108 0 173.5 72t68.5 168v199q0 99 -65.5 173t-176.5 74q-58 0 -102.5 -14.5t-84.5 -50.5t-61.5 -106.5t-21.5 -172.5z" />
<glyph unicode="A" d="M47 6l580 1462q8 7 28 7q8 0 15.5 -1.5t10.5 -3.5l3 -2l580 -1462q-10 -6 -37 -6q-10 0 -19.5 1.5t-13.5 2.5l-4 2l-174 440h-723l-176 -440q-10 -6 -37 -6q-12 0 -20 1.5t-10 2.5zM317 512h672l-307 780q-9 23 -15 42.5t-8 27.5l-2 8h-4q-8 -29 -26 -78z" />
<glyph unicode="B" horiz-adv-x="1282" d="M219 0v1475h475q111 0 191 -31t124 -86.5t63.5 -120t19.5 -143.5q0 -76 -19.5 -139t-44 -98t-57 -62t-48.5 -35t-28 -12h2q102 -25 168 -111q74 -97 74 -250q0 -183 -105 -285t-332 -102h-483zM289 66h411q197 0 281 81t84 240q0 167 -88.5 245.5t-278.5 78.5h-409v-645z M289 776h395q177 0 255.5 83t78.5 235q0 153 -77.5 234t-262.5 81h-389v-633z" />
<glyph unicode="C" horiz-adv-x="1138" d="M152 737q0 379 133 568.5t403 189.5q99 0 184 -16.5t120 -32.5l36 -16q4 -15 -4 -31q-4 -8 -9 -14.5t-8 -8.5l-3 -2q-13 6 -38.5 16t-105 26t-162.5 16q-112 0 -195 -34t-147.5 -112t-97.5 -216t-33 -335q0 -158 22 -277.5t61.5 -197.5t99.5 -126.5t130 -68.5t160 -20 t172 14t119 29l37 14q13 -4 21 -22q4 -8 5 -16v-7.5v-5.5l-1 -4q-5 -3 -14.5 -7.5t-43.5 -16t-72.5 -20.5t-101.5 -16t-131 -7q-271 0 -403.5 186.5t-132.5 570.5z" />
<glyph unicode="D" horiz-adv-x="1347" d="M219 0v1475h387q122 0 212.5 -22t163.5 -73.5t118.5 -136t69.5 -210.5t24 -296q0 -212 -35.5 -355.5t-112 -227.5t-182 -119t-258.5 -35h-387zM289 66h309q107 0 186 18.5t145 64t106.5 121.5t62.5 192t22 275q0 160 -22 276t-62.5 192.5t-106.5 121.5t-145 63.5 t-186 18.5h-309v-1343z" />
<glyph unicode="E" horiz-adv-x="1140" d="M219 0v1475h789q6 -12 6 -33t-6 -33h-719v-629h616q6 -12 6 -30t-6 -33h-616v-651h739q6 -15 6 -31q0 -20 -6 -35h-809z" />
<glyph unicode="F" horiz-adv-x="1091" d="M219 6v1469h789q6 -10 6 -33q0 -10 -1.5 -18.5t-2.5 -11.5l-2 -3h-719v-645h622q7 -13 7 -33q0 -9 -2 -17t-4 -12l-1 -4h-622v-692q-10 -6 -35 -6q-11 0 -20 1.5t-12 2.5z" />
<glyph unicode="G" horiz-adv-x="1267" d="M152 737q0 375 144 566.5t415 191.5q103 0 195.5 -16.5t133.5 -32.5l41 -16q4 -15 -4 -31q-4 -8 -9 -13.5t-8 -7.5l-3 -2q-17 6 -47 15.5t-118 25t-171 15.5q-88 0 -160 -20.5t-135.5 -70.5t-107 -128.5t-68.5 -199.5t-25 -278t25 -277.5t68 -198t106.5 -126t135.5 -68.5 t161 -20q143 0 313 39v616h-395q-6 13 -6 33q0 11 1.5 19.5t3.5 11.5l1 2h465v-721q-17 -7 -48.5 -18t-134 -29t-210.5 -18q-271 0 -415 188.5t-144 568.5z" />
<glyph unicode="H" horiz-adv-x="1376" d="M217 6v1462q12 7 35 7q10 0 19 -1.5t13 -3.5l3 -2v-680h803v680q11 7 34 7q10 0 19 -1.5t13 -3.5l3 -2v-1462q-10 -6 -35 -6q-12 0 -20.5 1.5t-11.5 2.5l-2 2v717h-803v-717q-12 -6 -35 -6q-8 0 -14 0.5t-10 1.5t-6.5 2t-3.5 2h-1z" />
<glyph unicode="I" horiz-adv-x="503" d="M217 6v1462q10 7 35 7q11 0 20 -1.5t12 -3.5l3 -2v-1462q-10 -6 -35 -6q-11 0 -20 1.5t-12 2.5z" />
<glyph unicode="J" horiz-adv-x="856" d="M61 41v7q0 32 23 50q13 -6 36.5 -15t90 -23.5t125.5 -14.5q118 0 180 62t62 208v1153q7 7 34 7q10 0 19 -1.5t13 -3.5l3 -2v-1153q0 -174 -74 -254.5t-237 -80.5q-68 0 -136.5 15t-103.5 31z" />
<glyph unicode="K" horiz-adv-x="1243" d="M217 6v1462q12 7 35 7q10 0 19 -1.5t13 -3.5l3 -2v-669h295l471 669q12 7 39 7q11 0 20.5 -1.5t13.5 -3.5l4 -2l-489 -696l547 -766q-12 -6 -39 -6q-12 0 -23.5 1.5t-16.5 2.5l-5 2l-520 727h-297v-727q-12 -6 -35 -6q-10 0 -19 1.5t-13 2.5z" />
<glyph unicode="L" horiz-adv-x="1028" d="M217 0v1468q12 7 35 7q11 0 20 -1.5t12 -3.5l3 -2v-1402h678q6 -13 6 -33q0 -9 -1.5 -17t-3.5 -12l-1 -4h-748z" />
<glyph unicode="M" horiz-adv-x="1724" d="M217 6v1462q16 7 45 7q13 0 24.5 -1.5t17.5 -3.5l5 -2l479 -856q18 -31 32.5 -58t19.5 -38l6 -12h4q18 38 61 108l502 856q12 7 47 7q15 0 26.5 -1.5t15.5 -3.5l5 -2v-1462q-9 -6 -34 -6q-11 0 -20 1.5t-12 2.5l-3 2v1180q0 62 2.5 115t5.5 75l2 23h-4q-23 -56 -76 -142 l-487 -833q-13 -6 -33 -6l-33 6l-467 833q-21 36 -39 71.5t-25 53.5l-8 17h-4q13 -80 13 -234v-1159q-8 -6 -33 -6q-11 0 -20 1.5t-12 2.5z" />
<glyph unicode="N" horiz-adv-x="1413" d="M217 6v1462q14 7 41 7q12 0 21.5 -1.5t13.5 -3.5l4 -2l733 -1187q27 -44 53 -90t38 -71l12 -24h4q-9 99 -9 246v1126q10 7 35 7q10 0 18.5 -1.5t11.5 -3.5l3 -2v-1462q-12 -6 -39 -6q-13 0 -23 1.5t-14 2.5l-4 2l-739 1204q-31 48 -54.5 91t-31.5 62l-8 19h-4 q6 -73 6 -266v-1110q-10 -6 -35 -6q-10 0 -18.5 1.5t-11.5 2.5z" />
<glyph unicode="O" horiz-adv-x="1388" d="M152 737q0 387 140.5 572.5t401.5 185.5q262 0 402.5 -185.5t140.5 -572.5t-140.5 -572t-402.5 -185q-261 0 -401.5 185t-140.5 572zM225 737q0 -696 469 -696t469 696q0 697 -469 697t-469 -697z" />
<glyph unicode="P" horiz-adv-x="1224" d="M219 6v1469h496q186 0 291.5 -115t105.5 -307q0 -191 -105.5 -305.5t-291.5 -114.5h-426v-627q-10 -6 -35 -6q-11 0 -20 1.5t-12 2.5zM289 698h428q152 0 236.5 94.5t84.5 258.5q0 168 -84 263t-237 95h-428v-711z" />
<glyph unicode="Q" horiz-adv-x="1388" d="M152 737q0 387 140.5 572.5t401.5 185.5q262 0 402.5 -185.5t140.5 -572.5q0 -472 -213 -651q54 -55 124.5 -93.5t133.5 -53.5q-6 -44 -43 -62q-68 15 -142.5 63t-125.5 109q-115 -69 -277 -69q-261 0 -401.5 185t-140.5 572zM225 737q0 -696 469 -696t469 696 q0 697 -469 697t-469 -697z" />
<glyph unicode="R" horiz-adv-x="1259" d="M219 6v1469h483q187 0 293.5 -110t106.5 -294t-107 -293.5t-295 -109.5h-442v65h449q149 0 235 89.5t86 248.5t-86 248.5t-235 89.5h-418v-1403q-10 -6 -35 -6q-11 0 -20 1.5t-12 2.5zM721 668l72 18l358 -680q-14 -6 -39 -6q-12 0 -22.5 1.5t-15.5 2.5l-5 2z" />
<glyph unicode="S" horiz-adv-x="1146" d="M141 55v7q1 12 5 25q6 17 16 26q20 -7 55 -18t133.5 -29.5t186.5 -18.5q197 0 306 84t109 242q0 48 -11 88t-27.5 69.5t-46 55t-57 42t-70.5 33t-75.5 26t-82.5 22.5q-174 47 -246 82q-153 76 -186 222q-9 43 -9 93q0 181 120.5 285t340.5 104q99 0 191.5 -12.5 t134.5 -24.5l43 -12q3 -36 -21 -57q-158 43 -340 43q-197 0 -297 -85.5t-100 -236.5q0 -37 6.5 -69t16.5 -57.5t29.5 -47.5t36.5 -38t47.5 -32t53 -25.5t62 -22t65.5 -19.5t72 -19q55 -14 90.5 -24.5t84.5 -29.5t80.5 -38.5t66 -50.5t54.5 -67t33 -85.5t13 -109.5 q0 -185 -126.5 -290t-350.5 -105q-69 0 -136 7.5t-113.5 19t-83.5 22.5t-55 19z" />
<glyph unicode="T" horiz-adv-x="1081" d="M68 1444q0 9 1.5 16.5t2.5 11.5l2 3h936q6 -8 6 -31q0 -9 -1.5 -17t-2.5 -12l-2 -4h-428v-1405q-10 -6 -35 -6q-11 0 -20 1.5t-12 2.5l-3 2v1405h-438q-6 13 -6 33z" />
<glyph unicode="U" horiz-adv-x="1357" d="M207 455v1013q12 7 35 7q11 0 19.5 -1.5t11.5 -3.5l3 -2v-1022q0 -193 107.5 -299t298.5 -106q190 0 295.5 106t105.5 299v1022q13 7 33 7q10 0 19 -1.5t13 -3.5l3 -2v-1013q0 -225 -128.5 -350t-344.5 -125q-215 0 -343 125.5t-128 349.5z" />
<glyph unicode="V" horiz-adv-x="1245" d="M59 1468q8 7 35 7q10 0 19 -1.5t13 -3.5l3 -2l457 -1249q11 -30 20 -59t12 -42l3 -14h4q7 47 32 113l457 1251q10 7 37 7q12 0 20.5 -1.5t11.5 -3.5l3 -2l-535 -1462q-8 -6 -28 -6q-8 0 -15.5 1.5t-10.5 2.5l-3 2z" />
<glyph unicode="W" horiz-adv-x="1931" d="M66 1468q9 7 34 7q11 0 20.5 -1.5t13.5 -3.5l3 -2l359 -1175q16 -50 27 -97.5t15 -69.5l3 -22h4q6 76 41 189l360 1175q6 7 29 7q10 0 17.5 -1.5t9.5 -3.5l2 -2l358 -1175q15 -50 24.5 -97.5t11.5 -69.5l3 -22h4q8 76 43 189l340 1175q8 7 35 7q10 0 18 -1.5t11 -3.5 l3 -2l-423 -1462q-9 -6 -29 -6q-9 0 -16 1.5t-10 2.5l-3 2l-360 1182q-16 54 -25.5 97t-11.5 59l-2 16h-4q-4 -51 -39 -172l-363 -1182q-10 -6 -28 -6q-9 0 -16 1.5t-10 2.5l-3 2z" />
<glyph unicode="X" horiz-adv-x="1210" d="M76 6l471 748l-461 714q14 7 45 7q12 0 22 -1.5t15 -3.5l4 -2l428 -665l434 665q14 7 43 7q13 0 23.5 -1.5t15.5 -3.5l4 -2l-469 -712l486 -750q-14 -6 -43 -6q-15 0 -26 1.5t-15 2.5l-4 2l-453 699l-436 -699q-16 -6 -45 -6q-12 0 -21.5 1.5t-13.5 2.5z" />
<glyph unicode="Y" horiz-adv-x="1257" d="M57 1468q14 7 43 7q13 0 23 -1.5t14 -3.5l4 -2l486 -768l501 768q10 7 39 7q15 0 25.5 -1.5t13.5 -3.5l4 -2l-548 -843v-619q-12 -6 -35 -6q-10 0 -19 1.5t-12 2.5l-4 2v617z" />
<glyph unicode="Z" horiz-adv-x="1177" d="M88 33q0 9 1.5 17t2.5 12l2 4l875 1343h-819q-7 10 -7 33q0 10 1.5 18.5t3.5 11.5l2 3h899q6 -13 6 -33q0 -9 -1.5 -17t-3.5 -12l-1 -4l-873 -1343h899q6 -10 6 -33q0 -10 -1.5 -18.5t-3.5 -11.5l-1 -3h-981q-6 10 -6 33z" />
<glyph unicode="[" horiz-adv-x="641" d="M217 -348v2007h334q6 -10 6 -35q0 -11 -1.5 -20t-3.5 -12l-1 -3h-264v-1868h264q6 -9 6 -32q0 -12 -1.5 -21.5t-3.5 -12.5l-1 -3h-334z" />
<glyph unicode="\" horiz-adv-x="864" d="M49 1528q10 8 37 8q13 0 22.5 -2t13.5 -4l3 -2l690 -1616q-10 -8 -37 -8q-12 0 -22 2t-14 4l-3 2z" />
<glyph unicode="]" horiz-adv-x="641" d="M84 -311q0 10 1.5 18t2.5 11l2 3h264v1868h-264q-6 10 -6 35q0 11 1.5 20t2.5 12l2 3h334v-2007h-334q-6 10 -6 37z" />
<glyph unicode="^" horiz-adv-x="1058" d="M129 932l360 536q8 7 39 7q14 0 23.5 -1.5t12.5 -3.5l3 -2l361 -536q-8 -6 -39 -6q-14 0 -24 1.5t-13 2.5l-4 2l-322 481l-321 -481q-6 -6 -37 -6q-14 0 -23.5 1.5t-12.5 2.5z" />
<glyph unicode="_" horiz-adv-x="1060" d="M117 -70q0 10 1.5 17.5t3.5 9.5l1 2h819q6 -6 6 -29q0 -10 -1.5 -17t-2.5 -9l-2 -2h-819q-6 5 -6 28z" />
<glyph unicode="`" horiz-adv-x="487" d="M100 1618q10 14 28.5 24.5t37.5 10.5l240 -307q-13 -26 -50 -29z" />
<glyph unicode="a" horiz-adv-x="1044" d="M109 289q0 149 93 231t283 82q173 0 316 -20v159q0 158 -70.5 227.5t-214.5 69.5q-73 0 -148.5 -14t-115.5 -28l-39 -13q-27 20 -23 55q18 7 49 17t119 26.5t166 16.5q86 0 147 -19t99 -52.5t59.5 -90.5t29 -120t7.5 -154v-656q-8 -6 -26 -6q-8 0 -15 1.5t-9 2.5l-3 2 l-12 184v3q-47 -102 -145 -157.5t-230 -55.5q-143 0 -230 82.5t-87 226.5zM178 289q0 -123 68.5 -185.5t187.5 -62.5q161 0 264 103.5t103 281.5v96q-3 0 -46 4.5t-75.5 7.5t-85 6t-96.5 3q-163 0 -241.5 -63t-78.5 -191z" />
<glyph unicode="b" horiz-adv-x="1134" d="M186 6v1524q8 6 33 6q11 0 19.5 -1.5t11.5 -2.5l2 -2v-631q100 199 342 199q97 0 169 -29t125.5 -93.5t81 -173.5t27.5 -263t-27.5 -263t-81 -173.5t-125.5 -93.5t-169 -29q-242 0 -342 198v-172q-8 -6 -33 -6q-11 0 -19.5 1.5t-11.5 2.5zM252 410q0 -66 21 -130t60 -118 t103 -87.5t142 -33.5q188 0 269 117t81 381t-81 380.5t-269 116.5q-77 0 -140 -32t-102 -84t-60.5 -114t-23.5 -126v-270z" />
<glyph unicode="c" horiz-adv-x="911" d="M133 539q0 272 110.5 415.5t313.5 143.5q69 0 128.5 -12t84.5 -24l25 -11q0 -39 -25 -58q-9 5 -25 11.5t-67.5 18t-106.5 11.5q-187 0 -277.5 -124t-90.5 -371q0 -248 93 -370t284 -122q58 0 111 11.5t77 23.5l23 12q25 -15 28 -55q-11 -7 -32 -16.5t-89 -26t-141 -16.5 q-203 0 -313.5 143.5t-110.5 415.5z" />
<glyph unicode="d" horiz-adv-x="1134" d="M137 539q0 154 27.5 263.5t81.5 173.5t126 93t169 29q242 0 342 -199v631q7 6 32 6q11 0 19.5 -1.5t11.5 -2.5l2 -2v-1524q-8 -6 -26 -6q-8 0 -15 1.5t-9 2.5l-3 2l-10 174q-101 -200 -344 -200q-97 0 -169 29t-126 93t-81.5 173.5t-27.5 263.5zM207 539q0 -264 81 -381 t269 -117q78 0 142 33.5t103 87.5t60 118t21 130v258q0 65 -21 129.5t-60 118t-103 87t-142 33.5q-188 0 -269 -116.5t-81 -380.5z" />
<glyph unicode="e" horiz-adv-x="1040" d="M133 545q0 279 113 416t307 137q177 0 272 -104.5t95 -272.5q0 -56 -6 -107t-12 -74l-5 -24h-694q9 -248 96.5 -358.5t267.5 -110.5q48 0 92.5 8.5t74.5 20.5t53 24t33 20l11 9q32 -18 35 -55q-4 -4 -12.5 -10t-39 -22.5t-64.5 -29t-89 -22.5t-114 -10q-201 0 -307.5 144 t-106.5 421zM203 578h635q12 57 12 153q0 132 -74 218.5t-223 86.5q-161 0 -252.5 -113t-97.5 -345z" />
<glyph unicode="f" horiz-adv-x="688" d="M84 1047q0 10 1.5 17.5t2.5 9.5l2 3h131v123q0 80 13 137.5t45 104.5t91.5 70.5t147.5 23.5q44 0 89.5 -6t68.5 -12l24 -7q2 -8 2 -15q0 -25 -20 -42q-66 21 -154 21q-75 0 -123.5 -17t-73.5 -53.5t-34.5 -81.5t-9.5 -113v-133h336q6 -7 6 -30q0 -9 -1.5 -16.5 t-3.5 -10.5l-1 -4h-336v-1010q-8 -6 -33 -6q-11 0 -19.5 1.5t-10.5 2.5l-3 2v1010h-131q-6 8 -6 31z" />
<glyph unicode="g" horiz-adv-x="1056" d="M94 -213q0 59 20 114t52.5 94.5t57.5 63t50 41.5q-53 43 -53 119q0 97 94 221q-85 40 -129.5 120t-44.5 190q0 163 97 255.5t268 92.5q123 0 213 -49l264 47q7 -18 7 -36t-7 -38l-203 -23q90 -90 90 -249q0 -163 -95.5 -255t-268.5 -92q-69 0 -135 17q-78 -92 -78 -195 q0 -49 38 -77.5t98.5 -39.5t134 -18t147 -20.5t134 -38t98.5 -79t38 -136.5q0 -66 -30.5 -124t-89 -104t-154 -73t-215.5 -27q-199 0 -298.5 83.5t-99.5 215.5zM168 -203q0 -117 84 -183.5t240 -66.5q189 0 305 73t116 190q0 75 -40.5 121t-109.5 64.5t-141 26.5 t-156.5 18.5t-133.5 29.5q-79 -51 -121.5 -125t-42.5 -148zM211 752q0 -141 80 -216t215 -75q136 0 215.5 75t79.5 216q0 139 -80 213.5t-215 74.5q-134 0 -214.5 -74.5t-80.5 -213.5z" />
<glyph unicode="h" horiz-adv-x="1122" d="M186 6v1524q10 6 33 6q10 0 18.5 -1.5t11.5 -2.5l3 -2v-639q64 99 161.5 153t221.5 54q144 0 226.5 -82t82.5 -221v-789q-10 -6 -33 -6q-10 0 -18 1.5t-11 2.5l-3 2v772q0 260 -265 260q-110 0 -210.5 -72.5t-151.5 -195.5v-764q-10 -6 -33 -6q-10 0 -18.5 1.5t-11.5 2.5 z" />
<glyph unicode="i" horiz-adv-x="450" d="M176 1309v86q16 6 49 6q15 0 27 -1.5t17 -3.5l5 -1v-86q-16 -6 -49 -6q-15 0 -27 1.5t-17 3.5zM193 6v1065q7 6 32 6q11 0 19.5 -1.5t11.5 -3.5l2 -1v-1065q-8 -6 -33 -6q-11 0 -19 1.5t-10 2.5z" />
<glyph unicode="j" horiz-adv-x="450" d="M-127 -477q0 10 2 18.5t4 11.5l2 3q33 -9 92 -9q112 0 166 63t54 202v1259q7 6 32 6q11 0 19.5 -1.5t11.5 -3.5l2 -1v-1251q0 -168 -70.5 -250t-197.5 -82q-38 0 -67 4.5t-39 9.5l-9 4q-2 7 -2 17zM176 1309v86q16 6 49 6q15 0 27 -1.5t17 -3.5l5 -1v-86q-16 -6 -49 -6 q-15 0 -27 1.5t-17 3.5z" />
<glyph unicode="k" horiz-adv-x="1011" d="M186 6v1524q8 6 33 6q11 0 19.5 -1.5t11.5 -2.5l2 -2v-936h252l336 477q12 6 43 6q8 0 14.5 -0.5t9.5 -1t5 -1.5h2l1 -1l-356 -506l406 -559q-10 -8 -39 -8q-13 0 -23.5 2t-14.5 4l-5 2l-379 524h-252v-526q-8 -6 -33 -6q-11 0 -19.5 1.5t-11.5 2.5z" />
<glyph unicode="l" horiz-adv-x="458" d="M197 6v1524q7 6 32 6q11 0 19.5 -1.5t11.5 -2.5l2 -2v-1524q-8 -6 -33 -6q-11 0 -19 1.5t-10 2.5z" />
<glyph unicode="m" horiz-adv-x="1726" d="M186 6v1065q10 6 33 6q10 0 18.5 -1.5t11.5 -3.5l3 -1v-178q129 205 360 205q56 0 103 -15q140 -47 176 -206q129 221 371 221q134 0 210 -82t76 -221v-789q-9 -6 -32 -6q-10 0 -18.5 1.5t-11.5 2.5l-3 2v772q0 134 -60.5 197t-181.5 63q-103 0 -197.5 -73.5 t-144.5 -200.5v-758q-10 -6 -33 -6q-10 0 -18 1.5t-11 2.5l-3 2v772q0 134 -60.5 197t-181.5 63q-102 0 -196 -72t-144 -196v-764q-10 -6 -33 -6q-10 0 -18.5 1.5t-11.5 2.5z" />
<glyph unicode="n" horiz-adv-x="1122" d="M186 6v1065q10 6 33 6q10 0 18.5 -1.5t11.5 -3.5l3 -1v-180q64 99 161.5 153t221.5 54q144 0 226.5 -82t82.5 -221v-789q-10 -6 -33 -6q-10 0 -18 1.5t-11 2.5l-3 2v772q0 260 -265 260q-110 0 -210.5 -72.5t-151.5 -195.5v-764q-10 -6 -33 -6q-10 0 -18.5 1.5t-11.5 2.5 z" />
<glyph unicode="o" horiz-adv-x="1101" d="M135 539q0 295 106 427t310 132t310 -132t106 -427t-106 -427t-310 -132t-310 132t-106 427zM205 539q0 -140 23.5 -238.5t70 -155t108 -81.5t144.5 -25t144.5 25t108 81.5t70 155t23.5 238.5t-23.5 238t-70 154.5t-108 81.5t-144.5 25t-144.5 -25t-108 -81.5t-70 -154.5 t-23.5 -238z" />
<glyph unicode="p" horiz-adv-x="1134" d="M186 -506v1577q8 6 33 6q11 0 19.5 -1.5t11.5 -3.5l2 -1v-172q100 199 342 199q97 0 169 -29t125.5 -93.5t81 -173.5t27.5 -263t-27.5 -263t-81 -173.5t-125.5 -93.5t-169 -29q-242 0 -342 198v-684q-8 -6 -33 -6q-11 0 -19.5 1.5t-11.5 2.5zM252 410q0 -66 21 -130 t60 -118t103 -87.5t142 -33.5q188 0 269 117t81 381t-81 380.5t-269 116.5q-77 0 -140 -32t-102 -84t-60.5 -114t-23.5 -126v-270z" />
<glyph unicode="q" horiz-adv-x="1134" d="M137 539q0 154 27.5 263.5t81.5 173.5t126 93t169 29q242 0 342 -199v172q7 6 32 6q11 0 19.5 -1.5t11.5 -3.5l2 -1v-1577q-8 -6 -33 -6q-11 0 -19 1.5t-10 2.5l-3 2v684q-100 -198 -342 -198q-97 0 -169 29t-126 93t-81.5 173.5t-27.5 263.5zM207 539q0 -264 81 -381 t269 -117q76 0 138.5 31.5t102 83.5t61.5 114t24 127v283q-2 64 -24 126t-61.5 114t-102 84t-138.5 32q-188 0 -269 -116.5t-81 -380.5z" />
<glyph unicode="r" horiz-adv-x="790" d="M186 6v1065q8 6 33 6q11 0 19.5 -1.5t11.5 -3.5l2 -1v-205q130 230 313 230q47 0 89.5 -11t61.5 -23l19 -11q-3 -40 -35 -56q-73 37 -153 37q-152 0 -295 -278v-748q-8 -6 -33 -6q-11 0 -19.5 1.5t-11.5 2.5z" />
<glyph unicode="s" horiz-adv-x="903" d="M127 43q-1 5 -1 9q0 27 21 42q15 -6 41 -15t100.5 -23.5t141.5 -14.5q130 0 210.5 57t80.5 174q0 34 -8.5 63t-20.5 50t-34.5 39t-42 29.5t-51.5 23.5t-54.5 19t-59.5 17q-12 3 -18 5q-52 14 -89 27.5t-81 37.5t-71 52t-45.5 71.5t-18.5 96.5q0 135 90.5 215t263.5 80 q68 0 132.5 -11t94.5 -23l31 -11q2 -14 -5 -30.5t-17 -23.5q-103 37 -230 37q-142 0 -216 -59t-74 -172q0 -48 20 -85.5t59 -62.5t78 -40.5t95 -30.5q6 -2 19 -5q141 -40 200 -75q125 -75 125 -230q0 -139 -91 -217.5t-266 -78.5q-86 0 -163 15.5t-111 31.5z" />
<glyph unicode="t" horiz-adv-x="718" d="M70 1047q0 10 1.5 17.5t2.5 9.5l2 3h166v209q22 19 56 19h9v-228h330q8 -7 8 -30q0 -10 -2 -18t-4 -11l-2 -2h-330v-664q0 -165 50.5 -238t183.5 -73q29 0 59.5 3t45.5 6l16 3q8 -10 8 -30l-4 -27q-56 -16 -138 -16q-161 0 -223.5 91.5t-62.5 280.5v664h-166q-6 8 -6 31z " />
<glyph unicode="u" horiz-adv-x="1122" d="M178 283v788q10 6 33 6q10 0 18.5 -1.5t11.5 -3.5l3 -1v-772q0 -260 264 -260q109 0 209 72t153 196v764q10 6 33 6q10 0 18.5 -1.5t11.5 -3.5l3 -1v-1065q-10 -6 -33 -6q-10 0 -18.5 1.5t-11.5 2.5l-3 2v180q-66 -98 -163.5 -152t-219.5 -54q-144 0 -226.5 82t-82.5 221 z" />
<glyph unicode="v" horiz-adv-x="1019" d="M66 1071q9 6 36 6q11 0 20 -1.5t12 -3.5l3 -1l307 -778q19 -49 35.5 -98.5t23.5 -74.5l7 -24h4q23 80 66 193l303 782q7 6 32 6q10 0 19 -1.5t12 -3.5l4 -1l-411 -1065q-9 -6 -27 -6q-8 0 -15 1.5t-9 2.5l-3 2z" />
<glyph unicode="w" horiz-adv-x="1619" d="M72 1071q9 6 34 6q11 0 20 -1.5t12 -3.5l3 -1l269 -809q16 -46 26 -86.5t12 -57.5l3 -18h6q10 62 45 162l278 809q8 6 31 6q11 0 19.5 -1.5t11.5 -3.5l2 -1l278 -805q16 -46 26.5 -87.5t12.5 -60.5l2 -18h6q10 57 45 166l267 805q9 6 32 6q11 0 19.5 -1.5t11.5 -3.5l2 -1 l-352 -1065q-9 -6 -27 -6q-8 0 -14.5 1.5t-8.5 2.5l-3 2l-254 731q-27 83 -45 144t-22 81l-5 19h-6q-12 -60 -78 -244l-252 -731q-8 -6 -26 -6q-8 0 -14.5 1.5t-9.5 2.5l-3 2z" />
<glyph unicode="x" horiz-adv-x="989" d="M68 6l383 543l-375 522q10 6 39 6q12 0 22.5 -1.5t14.5 -3.5l4 -1l344 -477l336 477q5 6 38 6q12 0 22 -1.5t14 -3.5l3 -1l-376 -530l385 -535q-10 -6 -39 -6q-13 0 -23 1.5t-14 2.5l-4 2l-353 490l-344 -490q-8 -6 -43 -6q-11 0 -19.5 1.5t-11.5 2.5z" />
<glyph unicode="y" horiz-adv-x="1064" d="M66 1071q11 6 36 6q11 0 20.5 -1.5t13.5 -3.5l3 -1l340 -815q20 -47 38.5 -94.5t26.5 -71.5l9 -24h6q27 82 66 188l299 817q7 6 34 6q12 0 21.5 -1.5t12.5 -3.5l3 -1l-487 -1331q-46 -128 -100 -190t-146 -62q-24 0 -47.5 3t-34.5 6l-12 3q-6 12 -6 29q0 20 8 31 q33 -11 86 -11q59 0 102.5 48t85.5 165l88 240q-22 11 -26 14z" />
<glyph unicode="z" horiz-adv-x="919" d="M88 31q0 11 1.5 18.5t2.5 9.5l2 2l633 955h-582q-6 6 -6 31q0 11 1.5 18.5t3.5 9.5l1 2h656q6 -7 6 -30q0 -10 -1.5 -18t-3.5 -11l-1 -2l-631 -955h639q6 -5 6 -30q0 -7 -0.5 -13t-1.5 -9t-2 -5t-1 -3l-1 -1h-715q-6 6 -6 31z" />
<glyph unicode="{" horiz-adv-x="688" d="M80 684q0 10 1.5 19t2.5 13l2 3h72q43 0 64.5 30.5t21.5 75.5v561q0 127 69.5 200t202.5 73h82q6 -13 6 -33q0 -9 -1.5 -17t-2.5 -12l-2 -4h-72q-213 0 -213 -211v-520q0 -71 -12.5 -111t-48.5 -65q36 -25 48.5 -65.5t12.5 -112.5v-520q0 -104 51 -157.5t162 -53.5h72 q6 -8 6 -31q0 -12 -1.5 -20.5t-2.5 -11.5l-2 -3h-82q-133 0 -202.5 73t-69.5 200v561q0 45 -21.5 75.5t-64.5 30.5h-72q-6 13 -6 33z" />
<glyph unicode="|" horiz-adv-x="499" d="M217 -397v2009q8 6 33 6q11 0 19.5 -1.5t10.5 -2.5l3 -2v-2009q-8 -6 -33 -6q-11 0 -19.5 1.5t-10.5 3.5z" />
<glyph unicode="}" horiz-adv-x="688" d="M84 -256q0 9 1.5 17t2.5 12l2 4h72q213 0 213 211v520q0 71 12.5 111t48.5 65q-36 25 -48.5 65.5t-12.5 112.5v520q0 104 -51 157.5t-162 53.5h-72q-6 8 -6 31q0 8 0.5 14t1.5 10t2 6.5t2 3.5v1h82q133 0 202.5 -73t69.5 -200v-561q0 -45 21.5 -75.5t64.5 -30.5h72 q6 -13 6 -33q0 -10 -1.5 -19t-2.5 -13l-2 -3h-72q-43 0 -64.5 -30.5t-21.5 -75.5v-561q0 -127 -69.5 -200t-202.5 -73h-82q-6 13 -6 33z" />
<glyph unicode="~" horiz-adv-x="1101" d="M180 616q3 4 8 10.5t24.5 23t42 29.5t60 23.5t78.5 10.5q45 0 89 -16.5t74 -36t73 -36t86 -16.5q44 0 83.5 18.5t57.5 37.5l18 18q38 -6 50 -41q-2 -4 -7.5 -11t-24 -24t-41.5 -30t-61.5 -24t-82.5 -11q-45 0 -89 16.5t-74 35.5t-73 35.5t-86 16.5q-44 0 -84 -18.5 t-58 -36.5l-18 -19q-38 6 -45 45z" />
<glyph unicode="&#xa1;" horiz-adv-x="458" d="M180 969v86q16 6 49 6q15 0 27.5 -1.5t17.5 -3.5l5 -1v-86q-17 -6 -50 -6q-15 0 -27 1.5t-17 3.5zM195 -408l10 1156q4 8 24 8q8 0 14 -2t9 -4l2 -2l10 -1156v-3q-7 -3 -35 -3q-38 1 -34 6z" />
<glyph unicode="&#xa2;" horiz-adv-x="954" d="M145 539q0 272 110.5 415.5t313.5 143.5q69 0 128.5 -12t84.5 -24l25 -11q0 -39 -25 -58q-8 5 -24 11.5t-67.5 18t-106.5 11.5q-369 0 -369 -495q0 -248 93 -370t284 -122q58 0 111 11.5t77 23.5l23 12q25 -15 28 -55q-11 -7 -32 -16.5t-89 -26t-141 -16.5 q-203 0 -313.5 143.5t-110.5 415.5zM524 -207l11 223h51l10 -223q-16 -8 -37 -8q-22 0 -35 8zM524 1284q18 6 37 6q20 0 35 -6l-10 -223h-51z" />
<glyph unicode="&#xa3;" horiz-adv-x="1048" d="M127 690q0 22 8 33h150q-26 72 -39 113t-26 104t-13 117q0 181 108 269.5t299 88.5q76 0 151 -12.5t113 -25.5l37 -13q4 -39 -24 -55q-121 43 -275 43q-165 0 -250 -76t-85 -225q0 -30 4 -60.5t15 -69.5t17.5 -60t24.5 -72t23 -66h411q8 -16 8 -31q0 -22 -8 -35h-389 q24 -79 33 -144t2 -142.5t-48 -154t-116 -150.5h655q9 -12 9 -33t-9 -33h-757v66q70 61 113 124t61 117.5t17.5 119t-11 114t-31.5 116.5h-170q-8 16 -8 33z" />
<glyph unicode="&#xa4;" horiz-adv-x="1204" d="M154 146v4l153 151q-92 110 -92 254q0 146 94 254l-155 152q2 14 16 28q8 6 15.5 10t10.5 5h3l155 -150q111 90 250 90q140 0 250 -92l150 152q10 -1 28 -15q6 -6 10.5 -13t5.5 -11l1 -4l-150 -152q94 -112 94 -254q0 -146 -94 -254l154 -151q-1 -13 -15 -27 q-7 -8 -14 -12.5t-10 -5.5l-4 -1l-154 154q-110 -92 -252 -92q-144 0 -254 92l-151 -154q-13 1 -29 19q-7 6 -11 13t-5 10zM276 555q0 -138 95.5 -233t232.5 -95q138 0 233 95t95 233t-95 233t-233 95q-137 0 -232.5 -95t-95.5 -233z" />
<glyph unicode="&#xa5;" horiz-adv-x="1239" d="M86 1395q10 6 35 6q13 0 22.5 -1.5t12.5 -3.5l4 -1l450 -750l475 750q10 6 37 6q12 0 21.5 -1.5t12.5 -3.5l3 -1l-495 -783h335q7 -10 7 -28q0 -8 -2 -15t-4 -11l-1 -3h-356v-168h356q7 -11 7 -29q0 -8 -2 -15t-4 -10l-1 -3h-356v-324q-6 -6 -33 -6q-12 0 -20 1.5 t-10 2.5l-2 2v324h-357q-6 10 -6 28q0 8 1.5 15t3.5 11l1 3h357v168h-357q-6 11 -6 29q0 8 1.5 15t3.5 10l1 3h336z" />
<glyph unicode="&#xa6;" horiz-adv-x="495" d="M213 -397v903q10 6 35 6q11 0 20 -1.5t12 -2.5l3 -2v-903q-10 -6 -35 -6q-11 0 -20 1.5t-12 3.5zM213 729v903q10 6 35 6q11 0 20 -1.5t12 -2.5l3 -2v-903q-10 -6 -35 -6q-11 0 -20 1.5t-12 3.5z" />
<glyph unicode="&#xa7;" horiz-adv-x="991" d="M154 711q0 49 18 92t48.5 73t56 48.5t53.5 33.5q-156 73 -156 213q0 120 85.5 181t244.5 61q74 0 142.5 -10.5t99.5 -21.5l32 -11q3 -15 -2.5 -31.5t-15.5 -23.5q-123 37 -238 37q-153 0 -214.5 -46.5t-61.5 -131.5q0 -52 32.5 -90.5t84.5 -62.5t114.5 -44t125 -43 t114.5 -51t84.5 -75t32.5 -110q0 -152 -160 -243q81 -35 126.5 -85t45.5 -130q0 -59 -19 -104.5t-52 -74.5t-82 -47.5t-103.5 -26t-122.5 -7.5q-80 0 -157.5 12t-114.5 24l-37 13q-3 38 18 59q148 -41 275 -41q169 0 246 46t77 147q0 50 -34 87t-89 59.5t-121 42t-132 41.5 t-121 51t-89 77t-34 113zM225 719q0 -33 11 -60.5t34 -48t47.5 -35.5t64 -29t69 -23t76.5 -22t75 -22q160 85 160 211q0 37 -17 67t-40.5 49.5t-65 39t-74.5 30.5t-86.5 28t-83.5 28q-28 -14 -53 -31.5t-54 -44t-46 -62.5t-17 -75z" />
<glyph unicode="&#xa8;" horiz-adv-x="931" d="M264 1257v86q16 7 49 7q15 0 27 -2t17 -4l5 -1v-86q-16 -6 -49 -6q-15 0 -27 1.5t-17 3.5zM553 1257v86q16 7 49 7q15 0 27 -2t17 -4l5 -1v-86q-16 -6 -49 -6q-15 0 -27 1.5t-17 3.5z" />
<glyph unicode="&#xa9;" horiz-adv-x="1656" d="M143 696q0 186 92 343.5t249.5 249t344.5 91.5q186 0 343.5 -91.5t249 -249t91.5 -343.5q0 -187 -91.5 -344.5t-249 -249.5t-343.5 -92t-344 92t-250 250t-92 344zM201 696q0 -127 50 -243.5t134 -200.5t200.5 -134t243.5 -50t243.5 50t200.5 134t133.5 200.5t49.5 243.5 q0 170 -84 314.5t-228.5 228.5t-314.5 84q-127 0 -243.5 -49.5t-200.5 -133.5t-134 -200.5t-50 -243.5zM489 711q0 407 342 407q60 0 111.5 -11t72.5 -23l21 -11q0 -29 -22 -45q-80 37 -172 37q-153 0 -222 -83t-69 -271q0 -355 291 -355q44 0 89.5 9t68.5 17l24 9 q19 -11 23 -43q-8 -5 -24.5 -13t-72.5 -21t-119 -13q-170 0 -256 105.5t-86 304.5z" />
<glyph unicode="&#xaa;" horiz-adv-x="737" d="M129 797q0 90 57 140t172 50q94 0 187 -12v94q0 94 -41 135t-127 41q-44 0 -89.5 -8.5t-69.5 -16.5l-23 -8q-7 6 -12 19t-3 22q97 37 203 37q209 0 209 -209v-456q-7 -4 -19 -4l-20 4l-8 96q-31 -55 -88.5 -85t-132.5 -30q-87 0 -141 51.5t-54 139.5zM131 479l4 21h451 q4 -8 4 -21l-4 -22h-451q-4 8 -4 22zM178 797q0 -73 39.5 -109.5t110.5 -36.5q94 0 154 56.5t63 158.5v68q-155 10 -178 10q-98 0 -143.5 -36t-45.5 -111z" />
<glyph unicode="&#xab;" horiz-adv-x="995" d="M113 553q0 8 1.5 15.5t3.5 10.5l1 3l424 460q26 -13 26 -51l-397 -438l397 -440q0 -39 -26 -52l-424 463q-6 11 -6 29zM442 553l4 27l383 417q25 -13 25 -49l-352 -395l352 -397q0 -38 -25 -50l-383 420q-4 9 -4 27z" />
<glyph unicode="&#xac;" horiz-adv-x="1232" d="M139 868q0 9 1.5 16.5t3.5 11.5l1 3h902v-512q-11 -6 -31 -6q-10 0 -18 1.5t-10 3.5l-3 1v451h-840q-6 10 -6 30z" />
<glyph unicode="&#xad;" horiz-adv-x="573" />
<glyph unicode="&#xae;" horiz-adv-x="1110" d="M135 965q0 173 123.5 296t296.5 123t296.5 -123t123.5 -296t-123.5 -296.5t-296.5 -123.5t-296.5 123.5t-123.5 296.5zM172 965q0 -160 112.5 -272.5t270.5 -112.5q160 0 271.5 112.5t111.5 272.5t-111.5 272.5t-271.5 112.5q-158 0 -270.5 -112.5t-112.5 -272.5z M414 743v463h176q143 0 143 -133q0 -97 -90 -123l119 -205q-7 -6 -21 -6l-22 4l-117 203h-151v-203q-7 -4 -19 -4zM451 981h141q55 0 78.5 23t23.5 69q0 51 -23 74.5t-79 23.5h-141v-190z" />
<glyph unicode="&#xaf;" horiz-adv-x="833" d="M104 1323q0 18 9 33h579q8 -11 8 -31q0 -22 -8 -35h-579q-9 15 -9 33z" />
<glyph unicode="&#xb0;" horiz-adv-x="749" d="M133 1264q0 97 65.5 170t180.5 73q113 0 175 -70.5t62 -166.5q0 -97 -62 -168.5t-175 -71.5q-119 0 -182.5 69t-63.5 165zM174 1266q0 -82 52.5 -139.5t150.5 -57.5q96 0 147 58t51 141t-51 141.5t-147 58.5t-149.5 -60.5t-53.5 -141.5z" />
<glyph unicode="&#xb1;" horiz-adv-x="1048" d="M180 336q0 10 1.5 18t2.5 10l2 3h676q6 -8 6 -31q0 -10 -1.5 -18t-2.5 -10l-2 -3h-676q-6 8 -6 31zM180 823q0 10 1.5 18t2.5 11l2 2h308v246q7 6 30 6q10 0 18 -1.5t10 -2.5l3 -2v-246h307q6 -8 6 -31q0 -10 -1.5 -17.5t-2.5 -9.5l-2 -3h-307v-246q-8 -6 -31 -6 q-10 0 -17.5 1.5t-10.5 3.5l-2 1v246h-308q-6 7 -6 30z" />
<glyph unicode="&#xb2;" horiz-adv-x="616" d="M78 793q0 65 29.5 114t73 75.5t95 53t95 48t73 60t29.5 89.5q0 62 -42 102.5t-142 40.5q-35 0 -73.5 -5t-59.5 -10l-21 -5q-13 20 -10 41q68 24 170 24q120 0 173.5 -50t53.5 -134q0 -55 -23.5 -97.5t-61 -68.5t-82 -48t-88 -44.5t-77.5 -50t-52 -71t-11 -101.5h391 q6 -9 6 -25q0 -13 -6 -22h-432q-8 37 -8 84z" />
<glyph unicode="&#xb3;" horiz-adv-x="616" d="M86 725q-4 25 12 37q72 -21 160 -21q67 0 113 13t67.5 36.5t30 48.5t8.5 58q0 81 -50 119.5t-132 38.5h-88q-11 23 0 45h88q76 0 117 37t41 102q0 67 -44 102t-128 35q-43 0 -84.5 -4.5t-61.5 -9.5l-20 -4q-14 18 -11 39q73 24 177 24q109 0 165 -46.5t56 -133.5 q0 -60 -23.5 -98.5t-75.5 -63.5q61 -24 92 -64t31 -118q0 -199 -266 -199q-44 0 -87.5 7t-64.5 13z" />
<glyph unicode="&#xb4;" horiz-adv-x="458" d="M68 1346l239 307q45 0 66 -35l-256 -301q-36 3 -49 29z" />
<glyph unicode="&#xb5;" horiz-adv-x="1177" d="M207 -29v1100q8 6 33 6q11 0 19 -1.5t11 -3.5l2 -1v-776q0 -256 267 -256q121 0 218.5 79t141.5 187v766q8 6 33 6q11 0 19.5 -1.5t10.5 -3.5l3 -1v-1065q-8 -6 -33 -6q-11 0 -19.5 1.5t-10.5 2.5l-3 2v182q-65 -100 -161.5 -154t-213.5 -54q-172 0 -256 104 q3 -208 17 -352.5t27 -185.5l12 -40q-26 -26 -72 -16q-5 16 -12.5 48.5t-20 156.5t-12.5 276z" />
<glyph unicode="&#xb6;" horiz-adv-x="886" d="M100 1247q2 75 50.5 130t134.5 55h55v-1891q-8 -6 -31 -6q-11 0 -18.5 1.5t-9.5 3.5l-2 1v1520q-86 3 -132.5 57t-46.5 129zM602 -459v1884q8 7 31 7q10 0 18 -2t11 -4l2 -1v-1884q-8 -6 -31 -6q-10 0 -18 1.5t-11 3.5z" />
<glyph unicode="&#xb7;" horiz-adv-x="442" d="M172 539v86q16 6 49 6q15 0 27 -1.5t17 -3.5l5 -1v-86q-16 -7 -49 -7q-15 0 -27 2t-17 4z" />
<glyph unicode="&#xb8;" horiz-adv-x="606" d="M104 -385q3 28 23 45q68 -37 158 -37q77 0 118 36.5t41 107.5q0 60 -38.5 91t-110.5 31h-64l-14 17l31 174l55 -4l-22 -129q231 0 231 -180q0 -199 -229 -199q-45 0 -90 12t-67 24z" />
<glyph unicode="&#xb9;" horiz-adv-x="491" d="M68 1257q67 18 133.5 61t107.5 89q8 4 25 4q18 0 22 -4v-694q-8 -4 -22 -4q-17 0 -25 4v544q0 59 2 84q-98 -88 -233 -124q-17 14 -10 40z" />
<glyph unicode="&#xba;" horiz-adv-x="776" d="M131 948q0 177 62 259.5t194 82.5t195 -82t63 -260t-63 -261t-195 -83q-133 0 -194.5 82.5t-61.5 261.5zM152 479l4 21h462q5 -7 5 -21l-5 -22h-462q-4 8 -4 22zM180 948q0 -159 47.5 -229t159.5 -70q110 0 159.5 70.5t49.5 228.5q0 156 -49.5 226.5t-159.5 70.5 q-111 0 -159 -70t-48 -227z" />
<glyph unicode="&#xbb;" horiz-adv-x="995" d="M143 156l353 397l-353 395q0 36 25 49l383 -417q4 -9 4 -27l-4 -27l-383 -420q-25 12 -25 50zM428 113l397 440l-397 438q0 37 27 51l424 -460q6 -11 6 -29q0 -8 -1.5 -15.5t-3.5 -10.5l-1 -3l-424 -463q-27 13 -27 52z" />
<glyph unicode="&#xbc;" d="M88 1257q67 18 134 61t108 89q8 4 24 4q19 0 23 -4v-694q-8 -4 -23 -4q-16 0 -24 4v544q0 59 2 84q-97 -88 -234 -124q-17 14 -10 40zM231 -16l797 1448q9 6 27 6q8 0 14 -1.5t8 -2.5l2 -2l-794 -1448q-9 -4 -27 -4zM686 213l4 16l375 469q7 4 25 4l24 -4v-452h88 q4 -9 4 -23l-4 -24h-88v-195q-6 -4 -22 -4l-25 4v195h-377q-4 4 -4 14zM760 246h307v383z" />
<glyph unicode="&#xbd;" horiz-adv-x="1435" d="M88 1257q67 18 134 61t108 89q8 4 24 4q19 0 23 -4v-694q-8 -4 -23 -4q-16 0 -24 4v544q0 59 2 84q-97 -88 -234 -124q-17 14 -10 40zM231 -16l797 1448q9 6 27 6q8 0 14 -1.5t8 -2.5l2 -2l-794 -1448q-9 -4 -27 -4zM870 84q0 57 22 100.5t57 71t77 49.5t84 42t77 42.5 t57 56.5t22 78q0 62 -42.5 103t-142.5 41q-35 0 -73 -5t-59 -11l-21 -5q-13 20 -10 41q67 25 169 25q120 0 174 -50.5t54 -134.5q0 -55 -23.5 -97.5t-61 -68.5t-82 -48t-88 -44.5t-77.5 -50t-52 -71t-11 -101.5h391q6 -9 6 -24q0 -14 -6 -23h-432q-9 37 -9 84z" />
<glyph unicode="&#xbe;" horiz-adv-x="1429" d="M123 725q-4 25 12 37q72 -21 160 -21q67 0 113 13t67.5 36.5t30 48.5t8.5 58q0 81 -50 119.5t-132 38.5h-88q-11 23 0 45h88q76 0 116.5 37t40.5 102q0 67 -44 102t-128 35q-43 0 -84 -4.5t-61 -9.5l-20 -4q-14 18 -11 39q72 24 176 24q109 0 165.5 -46.5t56.5 -133.5 q0 -60 -23.5 -98.5t-75.5 -63.5q61 -24 92 -64t31 -118q0 -199 -266 -199q-44 0 -87.5 7t-65.5 13zM352 -16l797 1448q9 6 27 6q8 0 14 -1.5t8 -2.5l2 -2l-794 -1448q-9 -4 -27 -4zM807 213l4 16l375 469q6 4 24 4l25 -4v-452h88q4 -9 4 -23l-4 -24h-88v-195q-7 -4 -23 -4 l-24 4v195h-377q-4 4 -4 14zM881 246h307v383z" />
<glyph unicode="&#xbf;" horiz-adv-x="860" d="M106 -31q0 83 21.5 149t56 111t76.5 84.5t84 79.5t76.5 86.5t56 116t21.5 156.5q10 8 30 8q8 0 15 -2t11 -4l3 -2q0 -96 -21 -172.5t-54.5 -125.5t-73.5 -90t-80.5 -78t-74 -77.5t-54.5 -100.5t-21 -135q0 -114 71.5 -186t227.5 -72q77 0 148 13t103 26l32 13 q12 -7 18 -22.5t4 -29.5q-14 -7 -39.5 -17.5t-106.5 -28t-165 -17.5q-95 0 -167 26t-114 71t-63 100t-21 120zM477 973v86q16 6 49 6q15 0 27 -1.5t17 -3.5l5 -1v-86q-16 -6 -49 -6q-15 0 -27 1.5t-17 3.5z" />
<glyph unicode="&#xc0;" d="M47 6l580 1462q8 7 28 7q8 0 15.5 -1.5t10.5 -3.5l3 -2l580 -1462q-10 -6 -37 -6q-10 0 -19.5 1.5t-13.5 2.5l-4 2l-174 440h-723l-176 -440q-10 -6 -37 -6q-12 0 -20 1.5t-10 2.5zM317 512h672l-307 780q-9 23 -15 42.5t-8 27.5l-2 8h-4q-8 -29 -26 -78zM451 1851 q10 14 28 24.5t37 10.5l240 -307q-13 -26 -49 -29z" />
<glyph unicode="&#xc1;" d="M47 6l580 1462q8 7 28 7q8 0 15.5 -1.5t10.5 -3.5l3 -2l580 -1462q-10 -6 -37 -6q-10 0 -19.5 1.5t-13.5 2.5l-4 2l-174 440h-723l-176 -440q-10 -6 -37 -6q-12 0 -20 1.5t-10 2.5zM317 512h672l-307 780q-9 23 -15 42.5t-8 27.5l-2 8h-4q-8 -29 -26 -78zM567 1581 l240 307q44 0 65 -35l-256 -301q-36 3 -49 29z" />
<glyph unicode="&#xc2;" d="M47 6l580 1462q8 7 28 7q8 0 15.5 -1.5t10.5 -3.5l3 -2l580 -1462q-10 -6 -37 -6q-10 0 -19.5 1.5t-13.5 2.5l-4 2l-174 440h-723l-176 -440q-10 -6 -37 -6q-12 0 -20 1.5t-10 2.5zM317 512h672l-307 780q-9 23 -15 42.5t-8 27.5l-2 8h-4q-8 -29 -26 -78zM375 1622 l254 207h53l252 -207q-7 -35 -33 -41l-248 184l-243 -186q-30 12 -35 43z" />
<glyph unicode="&#xc3;" d="M47 6l580 1462q8 7 28 7q8 0 15.5 -1.5t10.5 -3.5l3 -2l580 -1462q-10 -6 -37 -6q-10 0 -19.5 1.5t-13.5 2.5l-4 2l-174 440h-723l-176 -440q-10 -6 -37 -6q-12 0 -20 1.5t-10 2.5zM317 512h672l-307 780q-9 23 -15 42.5t-8 27.5l-2 8h-4q-8 -29 -26 -78zM408 1626 q2 4 5 10.5t15.5 23.5t27.5 30t40.5 23.5t54.5 10.5q51 0 117 -36.5t102 -36.5q25 0 45 14.5t27 29.5l8 15q36 4 53 -22q-2 -4 -5 -10.5t-15.5 -23t-27.5 -29.5t-40.5 -23.5t-54.5 -10.5q-52 0 -117 37t-102 37q-25 0 -45 -15.5t-28 -30.5l-7 -15q-39 -3 -53 22z" />
<glyph unicode="&#xc4;" d="M47 6l580 1462q8 7 28 7q8 0 15.5 -1.5t10.5 -3.5l3 -2l580 -1462q-10 -6 -37 -6q-10 0 -19.5 1.5t-13.5 2.5l-4 2l-174 440h-723l-176 -440q-10 -6 -37 -6q-12 0 -20 1.5t-10 2.5zM317 512h672l-307 780q-9 23 -15 42.5t-8 27.5l-2 8h-4q-8 -29 -26 -78zM461 1624v86 q16 6 49 6q15 0 27 -1.5t17 -2.5l5 -2v-86q-16 -6 -49 -6q-15 0 -27 1.5t-17 2.5zM750 1624v86q16 6 49 6q15 0 27 -1.5t17 -2.5l5 -2v-86q-16 -6 -49 -6q-15 0 -27 1.5t-17 2.5z" />
<glyph unicode="&#xc5;" d="M47 6l563 1421q-77 13 -130.5 70t-53.5 143q0 99 67.5 156t161.5 57q93 0 162.5 -56.5t69.5 -156.5q0 -86 -54.5 -142t-132.5 -71l564 -1421q-10 -6 -37 -6q-10 0 -19.5 1.5t-13.5 2.5l-4 2l-174 440h-723l-176 -440q-10 -6 -37 -6q-12 0 -20 1.5t-10 2.5zM317 512h672 l-307 780q-9 23 -15 42.5t-8 27.5l-2 8h-4q-8 -29 -26 -78zM492 1640q0 -65 41.5 -111t119.5 -46q80 0 124 46.5t44 110.5t-44 109t-124 45q-78 0 -119.5 -45t-41.5 -109z" />
<glyph unicode="&#xc6;" horiz-adv-x="1736" d="M31 6l887 1469h686q8 -12 8 -32.5t-8 -33.5h-603v-629h500q17 -34 0 -65h-500v-649h623q8 -13 8 -32.5t-8 -33.5h-692v420h-578l-250 -414q-15 -6 -34 -6q-27 0 -39 6zM393 485h539v891z" />
<glyph unicode="&#xc7;" horiz-adv-x="1136" d="M150 737q0 379 133 568.5t403 189.5q99 0 184 -16.5t120 -32.5l36 -16q4 -15 -4 -31q-4 -8 -9 -14.5t-9 -8.5l-3 -2q-13 6 -38 16t-104.5 26t-162.5 16q-112 0 -195 -34t-147.5 -112t-97.5 -216t-33 -335q0 -158 22 -277.5t61.5 -197.5t99.5 -126.5t130 -68.5t160 -20 t172 14t119 29l37 14q12 -4 20 -22q4 -8 5 -16t1 -12l-1 -5q-5 -3 -14.5 -7.5t-43.5 -16t-72.5 -20.5t-101.5 -16t-131 -7h-10l-23 -97q232 0 232 -180q0 -96 -56.5 -138t-173.5 -42q-45 0 -89.5 11.5t-66.5 23.5l-22 12q3 28 23 45q67 -37 157 -37q81 0 122.5 28t41.5 97 q0 59 -40 91t-113 32h-64l-14 16l35 140q-240 20 -357.5 206t-117.5 549z" />
<glyph unicode="&#xc8;" horiz-adv-x="1140" d="M219 0v1475h789q6 -12 6 -33t-6 -33h-719v-629h616q6 -12 6 -30t-6 -33h-616v-651h739q6 -15 6 -31q0 -20 -6 -35h-809zM383 1851q10 14 28.5 24.5t37.5 10.5l239 -307q-13 -26 -49 -29z" />
<glyph unicode="&#xc9;" horiz-adv-x="1140" d="M219 0v1475h789q6 -12 6 -33t-6 -33h-719v-629h616q6 -12 6 -30t-6 -33h-616v-651h739q6 -15 6 -31q0 -20 -6 -35h-809zM455 1583l239 307q45 0 66 -35l-256 -301q-36 3 -49 29z" />
<glyph unicode="&#xca;" horiz-adv-x="1140" d="M219 0v1475h789q6 -12 6 -33t-6 -33h-719v-629h616q6 -12 6 -30t-6 -33h-616v-651h739q6 -15 6 -31q0 -20 -6 -35h-809zM324 1622l254 207h53l252 -207q-7 -35 -33 -41l-248 184l-244 -186q-29 11 -34 43z" />
<glyph unicode="&#xcb;" horiz-adv-x="1140" d="M219 0v1475h789q6 -12 6 -33t-6 -33h-719v-629h616q6 -12 6 -30t-6 -33h-616v-651h739q6 -15 6 -31q0 -20 -6 -35h-809zM434 1599v87q16 6 49 6q15 0 27 -1.5t17 -2.5l5 -2v-87q-16 -6 -49 -6q-15 0 -27 1.5t-17 3.5zM723 1599v87q16 6 49 6q15 0 27 -1.5t17 -2.5l5 -2 v-87q-16 -6 -49 -6q-15 0 -27 1.5t-17 3.5z" />
<glyph unicode="&#xcc;" horiz-adv-x="503" d="M59 1851q10 14 28.5 24.5t37.5 10.5l240 -307q-13 -26 -50 -29zM217 6v1462q10 7 35 7q11 0 20 -1.5t12 -3.5l3 -2v-1462q-10 -6 -35 -6q-11 0 -20 1.5t-12 2.5z" />
<glyph unicode="&#xcd;" horiz-adv-x="503" d="M111 1583l239 307q45 0 66 -35l-256 -301q-36 3 -49 29zM217 6v1462q10 7 35 7q11 0 20 -1.5t12 -3.5l3 -2v-1462q-10 -6 -35 -6q-11 0 -20 1.5t-12 2.5z" />
<glyph unicode="&#xce;" horiz-adv-x="503" d="M-29 1622l254 207h54l251 -207q-7 -35 -32 -41l-248 184l-244 -186q-30 12 -35 43zM217 6v1462q10 7 35 7q11 0 20 -1.5t12 -3.5l3 -2v-1462q-10 -6 -35 -6q-11 0 -20 1.5t-12 2.5z" />
<glyph unicode="&#xcf;" horiz-adv-x="503" d="M59 1583v86q17 6 50 6q15 0 27 -1.5t17 -3.5l5 -1v-86q-16 -6 -49 -6q-15 0 -27.5 1.5t-17.5 3.5zM217 6v1462q10 7 35 7q11 0 20 -1.5t12 -3.5l3 -2v-1462q-10 -6 -35 -6q-11 0 -20 1.5t-12 2.5zM348 1583v86q16 6 49 6q15 0 27 -1.5t17 -3.5l5 -1v-86q-16 -6 -49 -6 q-15 0 -27 1.5t-17 3.5z" />
<glyph unicode="&#xd0;" horiz-adv-x="1359" d="M47 731q0 9 1.5 16.5t3.5 10.5l1 4h178v713h387q122 0 212.5 -22t163.5 -73.5t118.5 -136t69.5 -210.5t24 -296q0 -212 -35.5 -355.5t-112 -227.5t-182 -119t-258.5 -35h-387v700h-178q-6 11 -6 31zM301 66h309q107 0 186 18.5t145 64t107 121.5t63 192t22 275 q0 160 -22 276t-63 192.5t-107 121.5t-145 63.5t-186 18.5h-309v-647h315q7 -11 7 -31q0 -8 -1.5 -15.5t-3.5 -11.5l-2 -4h-315v-634z" />
<glyph unicode="&#xd1;" horiz-adv-x="1413" d="M217 6v1462q14 7 41 7q12 0 21.5 -1.5t13.5 -3.5l4 -2l733 -1187q27 -44 53 -90t38 -71l12 -24h4q-9 99 -9 246v1126q10 7 35 7q10 0 18.5 -1.5t11.5 -3.5l3 -2v-1462q-12 -6 -39 -6q-13 0 -23 1.5t-14 2.5l-4 2l-739 1204q-31 48 -54.5 91t-31.5 62l-8 19h-4 q6 -73 6 -266v-1110q-10 -6 -35 -6q-10 0 -18.5 1.5t-11.5 2.5zM473 1612q2 4 5 10.5t15.5 23.5t27.5 30t40.5 23.5t54.5 10.5q41 0 80 -18.5t73.5 -37t66.5 -18.5q25 0 45 15t27 30l7 15q36 4 54 -23q-2 -4 -5 -10.5t-15.5 -23t-27.5 -29t-41 -23t-55 -10.5 q-41 0 -79.5 18.5t-73 37t-66.5 18.5q-25 0 -45 -15.5t-27 -31.5l-8 -15q-38 -3 -53 23z" />
<glyph unicode="&#xd2;" horiz-adv-x="1388" d="M152 737q0 387 140.5 572.5t401.5 185.5q262 0 402.5 -185.5t140.5 -572.5t-140.5 -572t-402.5 -185q-261 0 -401.5 185t-140.5 572zM225 737q0 -696 469 -696t469 696q0 697 -469 697t-469 -697zM532 1851q10 14 28.5 24.5t37.5 10.5l240 -307q-13 -26 -50 -29z" />
<glyph unicode="&#xd3;" horiz-adv-x="1388" d="M152 737q0 387 140.5 572.5t401.5 185.5q262 0 402.5 -185.5t140.5 -572.5t-140.5 -572t-402.5 -185q-261 0 -401.5 185t-140.5 572zM225 737q0 -696 469 -696t469 696q0 697 -469 697t-469 -697zM666 1583l239 307q45 0 66 -35l-256 -301q-36 3 -49 29z" />
<glyph unicode="&#xd4;" horiz-adv-x="1388" d="M152 737q0 387 140.5 572.5t401.5 185.5q262 0 402.5 -185.5t140.5 -572.5t-140.5 -572t-402.5 -185q-261 0 -401.5 185t-140.5 572zM225 737q0 -696 469 -696t469 696q0 697 -469 697t-469 -697zM418 1622l254 207h53l252 -207q-7 -35 -33 -41l-248 184l-243 -186 q-30 12 -35 43z" />
<glyph unicode="&#xd5;" horiz-adv-x="1388" d="M152 737q0 387 140.5 572.5t401.5 185.5q262 0 402.5 -185.5t140.5 -572.5t-140.5 -572t-402.5 -185q-261 0 -401.5 185t-140.5 572zM225 737q0 -696 469 -696t469 696q0 697 -469 697t-469 -697zM471 1636q2 4 5 10.5t15.5 24t27.5 30.5t40.5 23.5t54.5 10.5 q41 0 80 -18.5t73.5 -37t66.5 -18.5q25 0 45 14.5t27 29.5l7 15q37 4 54 -22q-2 -4 -5 -10.5t-15.5 -23t-27.5 -29t-41 -23t-55 -10.5q-51 0 -117 36.5t-102 36.5q-25 0 -45 -15.5t-27 -30.5l-8 -15q-39 -3 -53 22z" />
<glyph unicode="&#xd6;" horiz-adv-x="1388" d="M152 737q0 387 140.5 572.5t401.5 185.5q262 0 402.5 -185.5t140.5 -572.5t-140.5 -572t-402.5 -185q-261 0 -401.5 185t-140.5 572zM225 737q0 -696 469 -696t469 696q0 697 -469 697t-469 -697zM498 1624v86q16 6 49 6q15 0 27 -1.5t17 -2.5l5 -2v-86q-16 -6 -49 -6 q-15 0 -27 1.5t-17 2.5zM786 1624v86q17 6 50 6q15 0 27 -1.5t17 -2.5l5 -2v-86q-16 -6 -49 -6q-15 0 -27.5 1.5t-17.5 2.5z" />
<glyph unicode="&#xd7;" horiz-adv-x="927" d="M178 356l236 236l-236 235q7 15 23 29q6 7 13 12.5t11 7.5l4 1l236 -234l235 234q15 -5 29 -21q7 -6 12.5 -13.5t6.5 -11.5l2 -4l-234 -235l234 -236q-5 -14 -21 -28q-6 -7 -13.5 -13t-11.5 -8l-4 -2l-235 236l-236 -236q-14 7 -28 23q-7 6 -13 13t-8 11z" />
<glyph unicode="&#xd8;" horiz-adv-x="1388" d="M152 737q0 387 140.5 572.5t401.5 185.5q189 0 312 -92l88 160q14 8 39 8q14 0 23.5 -2t11.5 -4l3 -2l-114 -207q180 -183 180 -619q0 -387 -140.5 -572t-402.5 -185q-209 0 -338 114l-102 -184q-12 -6 -39 -6q-11 0 -20.5 1.5t-12.5 2.5l-4 2l129 235q-155 188 -155 592 zM225 737q0 -349 119 -526l629 1132q-113 91 -279 91q-469 0 -469 -697zM391 156q112 -115 303 -115q469 0 469 696q0 381 -141 555z" />
<glyph unicode="&#xd9;" horiz-adv-x="1357" d="M207 455v1013q12 7 35 7q11 0 19.5 -1.5t11.5 -3.5l3 -2v-1022q0 -193 107.5 -299t298.5 -106q190 0 295.5 106t105.5 299v1022q13 7 33 7q10 0 19 -1.5t13 -3.5l3 -2v-1013q0 -225 -128.5 -350t-344.5 -125q-215 0 -343 125.5t-128 349.5zM463 1851q10 14 28 24.5 t37 10.5l240 -307q-13 -26 -49 -29z" />
<glyph unicode="&#xda;" horiz-adv-x="1357" d="M207 455v1013q12 7 35 7q11 0 19.5 -1.5t11.5 -3.5l3 -2v-1022q0 -193 107.5 -299t298.5 -106q190 0 295.5 106t105.5 299v1022q13 7 33 7q10 0 19 -1.5t13 -3.5l3 -2v-1013q0 -225 -128.5 -350t-344.5 -125q-215 0 -343 125.5t-128 349.5zM555 1583l240 307q44 0 65 -35 l-256 -301q-36 3 -49 29z" />
<glyph unicode="&#xdb;" horiz-adv-x="1357" d="M207 455v1013q12 7 35 7q11 0 19.5 -1.5t11.5 -3.5l3 -2v-1022q0 -193 107.5 -299t298.5 -106q190 0 295.5 106t105.5 299v1022q13 7 33 7q10 0 19 -1.5t13 -3.5l3 -2v-1013q0 -225 -128.5 -350t-344.5 -125q-215 0 -343 125.5t-128 349.5zM401 1622l254 207h54l252 -207 q-7 -35 -33 -41l-248 184l-244 -186q-30 12 -35 43z" />
<glyph unicode="&#xdc;" horiz-adv-x="1357" d="M207 455v1013q12 7 35 7q11 0 19.5 -1.5t11.5 -3.5l3 -2v-1022q0 -193 107.5 -299t298.5 -106q190 0 295.5 106t105.5 299v1022q13 7 33 7q10 0 19 -1.5t13 -3.5l3 -2v-1013q0 -225 -128.5 -350t-344.5 -125q-215 0 -343 125.5t-128 349.5zM481 1542v86q16 6 49 6 q15 0 27.5 -1.5t17.5 -2.5l5 -2v-86q-17 -6 -50 -6q-15 0 -27 1.5t-17 2.5zM770 1542v86q16 6 49 6q15 0 27 -1.5t17 -2.5l5 -2v-86q-16 -6 -49 -6q-15 0 -27 1.5t-17 2.5z" />
<glyph unicode="&#xdd;" horiz-adv-x="1257" d="M57 1468q14 7 43 7q13 0 23 -1.5t14 -3.5l4 -2l486 -768l501 768q10 7 39 7q15 0 25.5 -1.5t13.5 -3.5l4 -2l-548 -843v-619q-12 -6 -35 -6q-10 0 -19 1.5t-12 2.5l-4 2v617zM526 1583l240 307q44 0 65 -35l-256 -301q-36 3 -49 29z" />
<glyph unicode="&#xde;" horiz-adv-x="1226" d="M217 6v1462q8 7 35 7q12 0 20.5 -1.5t11.5 -3.5l3 -2v-299h426q187 0 292 -111t105 -298q0 -186 -105.5 -297t-291.5 -111h-426v-346q-8 -6 -35 -6q-8 0 -14 0.5t-10 1.5t-6.5 2t-3.5 2h-1zM287 418h428q153 0 237 90.5t84 249.5q0 163 -84 254.5t-237 91.5h-428v-686z " />
<glyph unicode="&#xdf;" horiz-adv-x="1165" d="M186 6v1133q0 397 400 397q94 0 166 -30t114 -80t63 -110.5t21 -127.5q0 -52 -11 -101t-21 -73l-11 -23h-14.5t-36.5 -3.5t-51 -10.5t-54 -21.5t-51.5 -35t-36 -54t-14.5 -75.5q0 -47 23 -84t59.5 -63t81 -50.5t89 -53.5t81 -64.5t59.5 -90.5t23 -125q0 -128 -83 -204 t-239 -76q-63 0 -113.5 8.5t-69.5 17.5l-19 8q-4 37 18 52q29 -9 82 -17t92 -8q137 0 199.5 60t62.5 155q0 62 -23 110t-59.5 79.5t-80.5 58t-88.5 52t-81 55t-59.5 74.5t-23 103q0 50 15.5 91.5t40 67.5t54 46t59 30t54 15.5t39.5 7.5l16 1q21 61 21 141q0 59 -16.5 108.5 t-50 90.5t-92 64.5t-136.5 23.5q-175 0 -253.5 -86t-78.5 -250v-1133q-8 -6 -33 -6q-11 0 -19.5 1.5t-11.5 2.5z" />
<glyph unicode="&#xe0;" horiz-adv-x="1044" d="M109 289q0 149 93 231t283 82q173 0 316 -20v159q0 158 -70.5 227.5t-214.5 69.5q-73 0 -148.5 -14t-115.5 -28l-39 -13q-27 20 -23 55q18 7 49 17t119 26.5t166 16.5q86 0 147 -19t99 -52.5t59.5 -90.5t29 -120t7.5 -154v-656q-8 -6 -26 -6q-8 0 -15 1.5t-9 2.5l-3 2 l-12 184v3q-47 -102 -145 -157.5t-230 -55.5q-143 0 -230 82.5t-87 226.5zM178 289q0 -123 68.5 -185.5t187.5 -62.5q161 0 264 103.5t103 281.5v96q-3 0 -46 4.5t-75.5 7.5t-85 6t-96.5 3q-163 0 -241.5 -63t-78.5 -191zM317 1532q10 14 28.5 24.5t37.5 10.5l240 -307 q-13 -26 -50 -29z" />
<glyph unicode="&#xe1;" horiz-adv-x="1044" d="M109 289q0 149 93 231t283 82q173 0 316 -20v159q0 158 -70.5 227.5t-214.5 69.5q-73 0 -148.5 -14t-115.5 -28l-39 -13q-27 20 -23 55q18 7 49 17t119 26.5t166 16.5q86 0 147 -19t99 -52.5t59.5 -90.5t29 -120t7.5 -154v-656q-8 -6 -26 -6q-8 0 -15 1.5t-9 2.5l-3 2 l-12 184v3q-47 -102 -145 -157.5t-230 -55.5q-143 0 -230 82.5t-87 226.5zM178 289q0 -123 68.5 -185.5t187.5 -62.5q161 0 264 103.5t103 281.5v96q-3 0 -46 4.5t-75.5 7.5t-85 6t-96.5 3q-163 0 -241.5 -63t-78.5 -191zM381 1278l240 307q44 0 65 -35l-256 -301 q-36 3 -49 29z" />
<glyph unicode="&#xe2;" horiz-adv-x="1044" d="M109 289q0 149 93 231t283 82q173 0 316 -20v159q0 158 -70.5 227.5t-214.5 69.5q-73 0 -148.5 -14t-115.5 -28l-39 -13q-27 20 -23 55q18 7 49 17t119 26.5t166 16.5q86 0 147 -19t99 -52.5t59.5 -90.5t29 -120t7.5 -154v-656q-8 -6 -26 -6q-8 0 -15 1.5t-9 2.5l-3 2 l-12 184v3q-47 -102 -145 -157.5t-230 -55.5q-143 0 -230 82.5t-87 226.5zM178 289q0 -123 68.5 -185.5t187.5 -62.5q161 0 264 103.5t103 281.5v96q-3 0 -46 4.5t-75.5 7.5t-85 6t-96.5 3q-163 0 -241.5 -63t-78.5 -191zM242 1274l247 203h52l247 -203q-7 -34 -32 -39 l-242 180l-240 -182q-26 10 -32 41z" />
<glyph unicode="&#xe3;" horiz-adv-x="1044" d="M109 289q0 149 93 231t283 82q173 0 316 -20v159q0 158 -70.5 227.5t-214.5 69.5q-73 0 -148.5 -14t-115.5 -28l-39 -13q-27 20 -23 55q18 7 49 17t119 26.5t166 16.5q86 0 147 -19t99 -52.5t59.5 -90.5t29 -120t7.5 -154v-656q-8 -6 -26 -6q-8 0 -15 1.5t-9 2.5l-3 2 l-12 184v3q-47 -102 -145 -157.5t-230 -55.5q-143 0 -230 82.5t-87 226.5zM178 289q0 -123 68.5 -185.5t187.5 -62.5q161 0 264 103.5t103 281.5v96q-3 0 -46 4.5t-75.5 7.5t-85 6t-96.5 3q-163 0 -241.5 -63t-78.5 -191zM279 1327q2 4 5 10.5t15.5 23.5t27.5 30t40.5 23.5 t54.5 10.5q52 0 117 -36.5t102 -36.5q25 0 45 15t28 29l7 15q36 4 53 -22q-2 -4 -5 -10.5t-15.5 -23t-27.5 -29.5t-40.5 -23.5t-54.5 -10.5q-41 0 -79.5 18.5t-73 37t-66.5 18.5q-25 0 -45 -15t-27 -31l-8 -15q-39 -3 -53 22z" />
<glyph unicode="&#xe4;" horiz-adv-x="1044" d="M109 289q0 149 93 231t283 82q173 0 316 -20v159q0 158 -70.5 227.5t-214.5 69.5q-73 0 -148.5 -14t-115.5 -28l-39 -13q-27 20 -23 55q18 7 49 17t119 26.5t166 16.5q86 0 147 -19t99 -52.5t59.5 -90.5t29 -120t7.5 -154v-656q-8 -6 -26 -6q-8 0 -15 1.5t-9 2.5l-3 2 l-12 184v3q-47 -102 -145 -157.5t-230 -55.5q-143 0 -230 82.5t-87 226.5zM178 289q0 -123 68.5 -185.5t187.5 -62.5q161 0 264 103.5t103 281.5v96q-3 0 -46 4.5t-75.5 7.5t-85 6t-96.5 3q-163 0 -241.5 -63t-78.5 -191zM322 1321v86q16 6 49 6q15 0 27 -1.5t17 -3.5l5 -1 v-86q-16 -6 -49 -6q-15 0 -27 1.5t-17 3.5zM610 1321v86q16 6 49 6q15 0 27.5 -1.5t17.5 -3.5l5 -1v-86q-17 -6 -50 -6q-15 0 -27 1.5t-17 3.5z" />
<glyph unicode="&#xe5;" horiz-adv-x="1044" d="M109 289q0 149 93 231t283 82q173 0 316 -20v159q0 158 -70.5 227.5t-214.5 69.5q-73 0 -148.5 -14t-115.5 -28l-39 -13q-27 20 -23 55q18 7 49 17t119 26.5t166 16.5q86 0 147 -19t99 -52.5t59.5 -90.5t29 -120t7.5 -154v-656q-8 -6 -26 -6q-8 0 -15 1.5t-9 2.5l-3 2 l-12 184v3q-47 -102 -145 -157.5t-230 -55.5q-143 0 -230 82.5t-87 226.5zM178 289q0 -123 68.5 -185.5t187.5 -62.5q161 0 264 103.5t103 281.5v96q-3 0 -46 4.5t-75.5 7.5t-85 6t-96.5 3q-163 0 -241.5 -63t-78.5 -191zM291 1436q0 99 67.5 156t161.5 57q93 0 162.5 -56.5 t69.5 -156.5q0 -101 -67.5 -159t-166.5 -58q-100 0 -163.5 57.5t-63.5 159.5zM356 1436q0 -65 42 -111.5t120 -46.5q80 0 124 47t44 111t-44 108.5t-124 44.5q-78 0 -120 -44.5t-42 -108.5z" />
<glyph unicode="&#xe6;" horiz-adv-x="1595" d="M109 289q0 307 356 307h295v145q0 159 -64.5 228t-199.5 69q-68 0 -139 -14t-107 -28l-37 -13q-27 20 -23 55q17 7 46 17t111.5 26.5t156.5 16.5q135 0 210 -58.5t99 -173.5q42 116 126.5 174t201.5 58q165 0 250.5 -104t85.5 -273q0 -48 -5.5 -94.5t-11.5 -68.5l-6 -23 h-625q9 -249 87.5 -369.5t232.5 -120.5q71 0 131 20t84 40l25 20q31 -15 34 -51q-4 -4 -11 -10t-33.5 -22.5t-56.5 -29t-79 -22.5t-102 -10q-129 0 -217.5 72t-126.5 212q-35 -137 -136.5 -210.5t-254.5 -73.5q-135 0 -216 82.5t-81 226.5zM178 289q0 -123 63 -185.5 t173 -62.5q153 0 249.5 103.5t96.5 281.5v109h-283q-156 0 -227.5 -59t-71.5 -187zM829 596h568q10 39 10 135q0 134 -64 219.5t-202 85.5q-136 0 -221 -106.5t-91 -333.5z" />
<glyph unicode="&#xe7;" horiz-adv-x="911" d="M133 539q0 272 110.5 415.5t313.5 143.5q69 0 128.5 -12t84.5 -24l25 -11q0 -39 -25 -58q-9 5 -25 11.5t-67.5 18t-106.5 11.5q-187 0 -277.5 -124t-90.5 -371q0 -248 93 -370t284 -122q58 0 111 11.5t77 23.5l23 12q25 -15 28 -55q-11 -7 -32 -16.5t-89 -26t-141 -16.5 l-35 2l-28 -105q225 0 225 -164q0 -93 -57 -142.5t-168 -49.5q-44 0 -88 11.5t-66 23.5l-21 12q3 28 23 45q66 -37 154 -37q76 0 116.5 35t40.5 102q0 111 -147 111h-62l-14 16l45 146q-164 28 -253 169.5t-89 383.5z" />
<glyph unicode="&#xe8;" horiz-adv-x="1040" d="M133 545q0 279 113 416t307 137q177 0 272 -104.5t95 -272.5q0 -56 -6 -107t-12 -74l-5 -24h-694q9 -248 96.5 -358.5t267.5 -110.5q48 0 92.5 8.5t74.5 20.5t53 24t33 20l11 9q32 -18 35 -55q-4 -4 -12.5 -10t-39 -22.5t-64.5 -29t-89 -22.5t-114 -10q-201 0 -307.5 144 t-106.5 421zM203 578h635q12 57 12 153q0 132 -74 218.5t-223 86.5q-161 0 -252.5 -113t-97.5 -345zM346 1550q10 14 28.5 24.5t37.5 10.5l239 -307q-13 -26 -49 -29z" />
<glyph unicode="&#xe9;" horiz-adv-x="1040" d="M133 545q0 279 113 416t307 137q177 0 272 -104.5t95 -272.5q0 -56 -6 -107t-12 -74l-5 -24h-694q9 -248 96.5 -358.5t267.5 -110.5q48 0 92.5 8.5t74.5 20.5t53 24t33 20l11 9q32 -18 35 -55q-4 -4 -12.5 -10t-39 -22.5t-64.5 -29t-89 -22.5t-114 -10q-201 0 -307.5 144 t-106.5 421zM203 578h635q12 57 12 153q0 132 -74 218.5t-223 86.5q-161 0 -252.5 -113t-97.5 -345zM399 1278l240 307q45 0 66 -35l-256 -301q-37 3 -50 29z" />
<glyph unicode="&#xea;" horiz-adv-x="1040" d="M133 545q0 279 113 416t307 137q177 0 272 -104.5t95 -272.5q0 -56 -6 -107t-12 -74l-5 -24h-694q9 -248 96.5 -358.5t267.5 -110.5q48 0 92.5 8.5t74.5 20.5t53 24t33 20l11 9q32 -18 35 -55q-4 -4 -12.5 -10t-39 -22.5t-64.5 -29t-89 -22.5t-114 -10q-201 0 -307.5 144 t-106.5 421zM203 578h635q12 57 12 153q0 132 -74 218.5t-223 86.5q-161 0 -252.5 -113t-97.5 -345zM279 1274l247 203h52l247 -203q-7 -34 -32 -39l-242 180l-240 -182q-26 10 -32 41z" />
<glyph unicode="&#xeb;" horiz-adv-x="1040" d="M133 545q0 279 113 416t307 137q177 0 272 -104.5t95 -272.5q0 -56 -6 -107t-12 -74l-5 -24h-694q9 -248 96.5 -358.5t267.5 -110.5q48 0 92.5 8.5t74.5 20.5t53 24t33 20l11 9q32 -18 35 -55q-4 -4 -12.5 -10t-39 -22.5t-64.5 -29t-89 -22.5t-114 -10q-201 0 -307.5 144 t-106.5 421zM203 578h635q12 57 12 153q0 132 -74 218.5t-223 86.5q-161 0 -252.5 -113t-97.5 -345zM360 1321v86q17 6 50 6q15 0 27 -1.5t17 -3.5l5 -1v-86q-16 -6 -49 -6q-15 0 -27.5 1.5t-17.5 3.5zM649 1321v86q16 6 49 6q15 0 27.5 -1.5t17.5 -3.5l5 -1v-86 q-17 -6 -50 -6q-15 0 -27 1.5t-17 3.5z" />
<glyph unicode="&#xec;" horiz-adv-x="450" d="M20 1554q10 14 28.5 24.5t37.5 10.5l240 -307q-13 -26 -50 -29zM193 6v1065q7 6 32 6q11 0 19.5 -1.5t11.5 -3.5l2 -1v-1065q-8 -6 -33 -6q-11 0 -19 1.5t-10 2.5z" />
<glyph unicode="&#xed;" horiz-adv-x="450" d="M104 1278l240 307q45 0 66 -35l-256 -301q-37 3 -50 29zM193 6v1065q7 6 32 6q11 0 19.5 -1.5t11.5 -3.5l2 -1v-1065q-8 -6 -33 -6q-11 0 -19 1.5t-10 2.5z" />
<glyph unicode="&#xee;" horiz-adv-x="454" d="M-43 1274l248 203h51l248 -203q-7 -33 -33 -39l-242 180l-239 -182q-27 11 -33 41zM195 6v1065q7 6 32 6q11 0 19.5 -1.5t11.5 -3.5l2 -1v-1065q-8 -6 -33 -6q-11 0 -19 1.5t-10 2.5z" />
<glyph unicode="&#xef;" horiz-adv-x="454" d="M29 1239v86q16 6 49 6q15 0 27 -1.5t17 -3.5l5 -1v-86q-16 -6 -49 -6q-15 0 -27 1.5t-17 3.5zM195 6v1065q7 6 32 6q11 0 19.5 -1.5t11.5 -3.5l2 -1v-1065q-8 -6 -33 -6q-11 0 -19 1.5t-10 2.5zM317 1239v86q17 6 50 6q15 0 27 -1.5t17 -3.5l5 -1v-86q-16 -6 -49 -6 q-15 0 -27.5 1.5t-17.5 3.5z" />
<glyph unicode="&#xf0;" horiz-adv-x="1130" d="M135 516q0 276 106.5 406.5t295.5 130.5q135 0 228.5 -55.5t141.5 -153.5q-25 142 -92.5 264.5t-171.5 210.5l-278 -176q-31 16 -35 53l260 164q-128 87 -295 121q-7 34 14 55q194 -38 336 -139l150 94q31 -15 34 -53l-131 -82q140 -120 215.5 -303t75.5 -424 q0 -182 -28.5 -309t-86 -201t-135 -106.5t-184.5 -32.5q-420 0 -420 536zM205 516q0 -132 25 -226t73 -148t109.5 -78.5t142.5 -24.5t143.5 24.5t111 78.5t74 148t25.5 226q0 134 -27 228.5t-78 147.5t-115.5 76t-149.5 23q-81 0 -140 -24t-104 -78t-67.5 -147.5 t-22.5 -225.5z" />
<glyph unicode="&#xf1;" horiz-adv-x="1122" d="M186 6q10 -6 33 -6q10 0 18.5 1.5t11.5 2.5l3 2v764q51 123 151.5 195.5t210.5 72.5q265 0 265 -260v-772q9 -6 32 -6q10 0 18.5 1.5t11.5 2.5l3 2v789q0 139 -82.5 221t-226.5 82q-124 0 -221.5 -54t-161.5 -153v180q-10 6 -33 6q-10 0 -18.5 -1.5t-11.5 -3.5l-3 -1 v-1065zM326 1327q2 4 5 10.5t15.5 23.5t27.5 30t40.5 23.5t54.5 10.5q51 0 117 -36.5t102 -36.5q25 0 45 15t27 29l8 15q36 4 53 -22q-2 -4 -5 -10.5t-15.5 -23t-27.5 -29.5t-40.5 -23.5t-54.5 -10.5q-52 0 -117 37t-102 37q-25 0 -45 -15t-28 -31l-7 -15q-39 -3 -53 22z " />
<glyph unicode="&#xf2;" horiz-adv-x="1101" d="M135 539q0 295 106 427t310 132t310 -132t106 -427t-106 -427t-310 -132t-310 132t-106 427zM205 539q0 -140 23.5 -238.5t70 -155t108 -81.5t144.5 -25t144.5 25t108 81.5t70 155t23.5 238.5t-23.5 238t-70 154.5t-108 81.5t-144.5 25t-144.5 -25t-108 -81.5t-70 -154.5 t-23.5 -238zM289 1550q10 14 28 24.5t37 10.5l240 -307q-13 -26 -49 -29z" />
<glyph unicode="&#xf3;" horiz-adv-x="1101" d="M135 539q0 295 106 427t310 132t310 -132t106 -427t-106 -427t-310 -132t-310 132t-106 427zM205 539q0 -140 23.5 -238.5t70 -155t108 -81.5t144.5 -25t144.5 25t108 81.5t70 155t23.5 238.5t-23.5 238t-70 154.5t-108 81.5t-144.5 25t-144.5 -25t-108 -81.5t-70 -154.5 t-23.5 -238zM393 1278l240 307q44 0 65 -35l-256 -301q-36 3 -49 29z" />
<glyph unicode="&#xf4;" horiz-adv-x="1101" d="M135 539q0 295 106 427t310 132t310 -132t106 -427t-106 -427t-310 -132t-310 132t-106 427zM205 539q0 -140 23.5 -238.5t70 -155t108 -81.5t144.5 -25t144.5 25t108 81.5t70 155t23.5 238.5t-23.5 238t-70 154.5t-108 81.5t-144.5 25t-144.5 -25t-108 -81.5t-70 -154.5 t-23.5 -238zM276 1274l248 203h51l248 -203q-7 -34 -32 -39l-242 180l-240 -182q-27 11 -33 41z" />
<glyph unicode="&#xf5;" horiz-adv-x="1101" d="M135 539q0 295 106 427t310 132t310 -132t106 -427t-106 -427t-310 -132t-310 132t-106 427zM205 539q0 -140 23.5 -238.5t70 -155t108 -81.5t144.5 -25t144.5 25t108 81.5t70 155t23.5 238.5t-23.5 238t-70 154.5t-108 81.5t-144.5 25t-144.5 -25t-108 -81.5t-70 -154.5 t-23.5 -238zM311 1327q2 4 5 10.5t15.5 23.5t27.5 30t41 23.5t55 10.5q51 0 117 -36.5t102 -36.5q25 0 45 15t27 29l8 15q36 4 53 -22q-2 -4 -5 -10.5t-15.5 -23t-27.5 -29.5t-40.5 -23.5t-54.5 -10.5q-41 0 -80 18.5t-73.5 37t-66.5 18.5q-25 0 -45 -15t-27 -31l-7 -15 q-39 -3 -54 22z" />
<glyph unicode="&#xf6;" horiz-adv-x="1101" d="M135 539q0 295 106 427t310 132t310 -132t106 -427t-106 -427t-310 -132t-310 132t-106 427zM205 539q0 -140 23.5 -238.5t70 -155t108 -81.5t144.5 -25t144.5 25t108 81.5t70 155t23.5 238.5t-23.5 238t-70 154.5t-108 81.5t-144.5 25t-144.5 -25t-108 -81.5t-70 -154.5 t-23.5 -238zM358 1321v86q17 6 50 6q15 0 27 -1.5t17 -3.5l5 -1v-86q-16 -6 -49 -6q-15 0 -27.5 1.5t-17.5 3.5zM647 1321v86q16 6 49 6q15 0 27 -1.5t17 -3.5l5 -1v-86q-16 -6 -49 -6q-15 0 -27 1.5t-17 3.5z" />
<glyph unicode="&#xf7;" horiz-adv-x="1153" d="M180 594q0 10 1.5 18t2.5 10l2 3h781q6 -8 6 -31q0 -10 -1.5 -18t-3.5 -10l-1 -3h-781q-6 8 -6 31zM528 221v86q17 6 50 6q15 0 27 -1.5t17 -3.5l5 -1v-86q-16 -6 -49 -6q-15 0 -27.5 1.5t-17.5 3.5zM528 881v86q17 6 50 6q15 0 27 -1.5t17 -3.5l5 -1v-86q-16 -7 -49 -7 q-15 0 -27.5 2t-17.5 4z" />
<glyph unicode="&#xf8;" horiz-adv-x="1099" d="M135 539q0 295 106 427t310 132q150 0 250 -72l71 131q8 6 39 6q8 0 14 -0.5t10 -1.5t6.5 -2t3.5 -1l1 -1l-98 -176q119 -134 119 -442q0 -295 -106 -427t-310 -132q-135 0 -227 57l-72 -131q-8 -6 -39 -6q-12 0 -20.5 1.5t-11.5 2.5l-3 2l94 170q-137 134 -137 463z M205 539q0 -280 100 -404l463 834q-80 69 -217 69q-83 0 -144.5 -25t-108 -81.5t-70 -154.5t-23.5 -238zM354 92q72 -53 197 -53q83 0 144.5 25t108 81.5t70 155t23.5 238.5q0 255 -84 379z" />
<glyph unicode="&#xf9;" horiz-adv-x="1122" d="M178 283q0 -139 82.5 -221t226.5 -82q122 0 219.5 54t163.5 152v-180q10 -6 33 -6q10 0 18.5 1.5t11.5 2.5l3 2v1065q-10 6 -33 6q-10 0 -18.5 -1.5t-11.5 -3.5l-3 -1v-764q-53 -124 -153 -196t-209 -72q-264 0 -264 260v772q-10 6 -33 6q-10 0 -18.5 -1.5t-11.5 -3.5 l-3 -1v-788zM350 1550q10 14 28.5 24.5t37.5 10.5l239 -307q-13 -26 -49 -29z" />
<glyph unicode="&#xfa;" horiz-adv-x="1122" d="M178 283v788q10 6 33 6q10 0 18.5 -1.5t11.5 -3.5l3 -1v-772q0 -260 264 -260q109 0 209 72t153 196v764q10 6 33 6q10 0 18.5 -1.5t11.5 -3.5l3 -1v-1065q-10 -6 -33 -6q-10 0 -18.5 1.5t-11.5 2.5l-3 2v180q-66 -98 -163.5 -152t-219.5 -54q-144 0 -226.5 82t-82.5 221 zM420 1278l239 307q45 0 66 -35l-256 -301q-36 3 -49 29z" />
<glyph unicode="&#xfb;" horiz-adv-x="1122" d="M178 283v788q10 6 33 6q10 0 18.5 -1.5t11.5 -3.5l3 -1v-772q0 -260 264 -260q109 0 209 72t153 196v764q10 6 33 6q10 0 18.5 -1.5t11.5 -3.5l3 -1v-1065q-10 -6 -33 -6q-10 0 -18.5 1.5t-11.5 2.5l-3 2v180q-66 -98 -163.5 -152t-219.5 -54q-144 0 -226.5 82t-82.5 221 zM283 1274l247 203h52l247 -203q-7 -34 -32 -39l-242 180l-240 -182q-26 10 -32 41z" />
<glyph unicode="&#xfc;" horiz-adv-x="1122" d="M178 283q0 -139 82.5 -221t226.5 -82q122 0 219.5 54t163.5 152v-180q10 -6 33 -6q10 0 18.5 1.5t11.5 2.5l3 2v1065q-10 6 -33 6q-10 0 -18.5 -1.5t-11.5 -3.5l-3 -1v-764q-53 -124 -153 -196t-209 -72q-264 0 -264 260v772q-10 6 -33 6q-10 0 -18.5 -1.5t-11.5 -3.5 l-3 -1v-788zM371 1321v86q16 6 49 6q15 0 27 -1.5t17 -3.5l5 -1v-86q-16 -6 -49 -6q-15 0 -27 1.5t-17 3.5zM659 1321v86q17 6 50 6q15 0 27 -1.5t17 -3.5l5 -1v-86q-16 -6 -49 -6q-15 0 -27.5 1.5t-17.5 3.5z" />
<glyph unicode="&#xfd;" horiz-adv-x="1062" d="M66 1071q11 6 36 6q11 0 20.5 -1.5t13.5 -3.5l3 -1l340 -815q20 -47 38.5 -94.5t26.5 -71.5l9 -24h6q27 82 66 188l299 817q7 6 34 6q12 0 21.5 -1.5t12.5 -3.5l3 -1l-487 -1331q-46 -128 -100 -190t-146 -62q-24 0 -47.5 3t-34.5 6l-12 3q-6 12 -6 29q0 20 8 31 q33 -11 86 -11q59 0 102.5 48t85.5 165l88 240q-22 11 -26 14zM397 1278l240 307q44 0 65 -35l-256 -301q-36 3 -49 29z" />
<glyph unicode="&#xfe;" horiz-adv-x="1134" d="M186 -506v2036q8 6 33 6q11 0 19.5 -1.5t11.5 -2.5l2 -2v-631q100 199 342 199q97 0 169 -29t125.5 -93.5t81 -173.5t27.5 -263t-27.5 -263t-81 -173.5t-125.5 -93.5t-169 -29q-242 0 -342 198v-684q-8 -6 -33 -6q-11 0 -19.5 1.5t-11.5 2.5zM252 410q0 -66 21 -130 t60 -118t103 -87.5t142 -33.5q188 0 269 117t81 381t-81 380.5t-269 116.5q-77 0 -140 -32t-102 -84t-60.5 -114t-23.5 -126v-270z" />
<glyph unicode="&#xff;" horiz-adv-x="1062" d="M66 1071q11 6 36 6q11 0 20.5 -1.5t13.5 -3.5l3 -1l340 -815q20 -47 38.5 -94.5t26.5 -71.5l9 -24h6q27 82 66 188l299 817q7 6 34 6q12 0 21.5 -1.5t12.5 -3.5l3 -1l-487 -1331q-46 -128 -100 -190t-146 -62q-24 0 -47.5 3t-34.5 6l-12 3q-6 12 -6 29q0 20 8 31 q33 -11 86 -11q59 0 102.5 48t85.5 165l88 240q-22 11 -26 14zM332 1300v86q16 7 49 7q15 0 27 -1.5t17 -3.5l5 -2v-86q-16 -6 -49 -6q-15 0 -27 1.5t-17 2.5zM621 1300v86q16 7 49 7q15 0 27 -1.5t17 -3.5l5 -2v-86q-16 -6 -49 -6q-15 0 -27 1.5t-17 2.5z" />
<glyph unicode="&#x152;" horiz-adv-x="1695" d="M152 737q0 386 146.5 572t416.5 186q77 0 174 -20h674q6 -12 6 -33t-6 -33h-617v-629h514q6 -12 6 -30t-6 -33h-514v-651h637q6 -15 6 -31q0 -20 -6 -35h-696q-78 -20 -172 -20q-270 0 -416.5 185.5t-146.5 571.5zM225 737q0 -696 490 -696q83 0 162 27v1341 q-77 25 -162 25q-490 0 -490 -697z" />
<glyph unicode="&#x153;" horiz-adv-x="1705" d="M137 539q0 295 102.5 427t301.5 132q141 0 226 -68t126 -219q85 287 344 287q169 0 257.5 -104t88.5 -273q0 -56 -5.5 -107t-11.5 -74l-5 -24h-633q9 -250 84.5 -360.5t238.5 -110.5q67 0 128 20t89 40l27 20q32 -16 35 -51q-4 -4 -12 -10t-35.5 -22.5t-59.5 -29 t-84 -22.5t-108 -10q-257 0 -340 286q-41 -152 -124 -219t-226 -67q-199 0 -301.5 132t-102.5 427zM207 539q0 -140 22.5 -238.5t67.5 -155t104 -81.5t140 -25q107 0 174 46t103 158t36 300q0 141 -19.5 237.5t-60 153t-97 80.5t-136.5 24q-64 0 -114.5 -15t-92.5 -51 t-69.5 -93t-42.5 -142t-15 -198zM928 578h573q12 57 12 153q0 133 -67.5 219t-208.5 86q-142 0 -222.5 -112.5t-86.5 -345.5z" />
<glyph unicode="&#x178;" horiz-adv-x="1257" d="M57 1468q14 7 43 7q13 0 23 -1.5t14 -3.5l4 -2l486 -768l501 768q10 7 39 7q15 0 25.5 -1.5t13.5 -3.5l4 -2l-548 -843v-619q-12 -6 -35 -6q-10 0 -19 1.5t-12 2.5l-4 2v617zM432 1585v86q16 6 49 6q15 0 27 -1.5t17 -3.5l5 -1v-86q-16 -6 -49 -6q-15 0 -27 1.5t-17 3.5z M721 1585v86q16 6 49 6q15 0 27 -1.5t17 -3.5l5 -1v-86q-16 -6 -49 -6q-15 0 -27 1.5t-17 3.5z" />
<glyph unicode="&#x2c6;" horiz-adv-x="811" d="M125 1192l254 207h53l252 -207q-7 -35 -33 -41l-248 184l-243 -186q-30 12 -35 43z" />
<glyph unicode="&#x2dc;" horiz-adv-x="669" d="M113 1298q2 4 5 10.5t15.5 24t27.5 30.5t40.5 23.5t54.5 10.5q52 0 117 -37t102 -37q25 0 45 14.5t28 29.5l7 15q36 4 53 -22q-2 -4 -5 -10.5t-15.5 -23t-27.5 -29t-40.5 -23t-54.5 -10.5q-51 0 -117 36.5t-102 36.5q-25 0 -45 -15.5t-27 -30.5l-8 -15q-39 -3 -53 22z " />
<glyph unicode="&#x2000;" horiz-adv-x="945" />
<glyph unicode="&#x2001;" horiz-adv-x="1890" />
<glyph unicode="&#x2002;" horiz-adv-x="945" />
<glyph unicode="&#x2003;" horiz-adv-x="1890" />
<glyph unicode="&#x2004;" horiz-adv-x="630" />
<glyph unicode="&#x2005;" horiz-adv-x="472" />
<glyph unicode="&#x2006;" horiz-adv-x="315" />
<glyph unicode="&#x2007;" horiz-adv-x="315" />
<glyph unicode="&#x2008;" horiz-adv-x="236" />
<glyph unicode="&#x2009;" horiz-adv-x="378" />
<glyph unicode="&#x200a;" horiz-adv-x="105" />
<glyph unicode="&#x2010;" horiz-adv-x="724" d="M172 594q0 10 1.5 18t2.5 10l2 3h369q6 -8 6 -31q0 -10 -1.5 -18t-3.5 -10l-1 -3h-369q-6 8 -6 31z" />
<glyph unicode="&#x2011;" horiz-adv-x="724" d="M172 594q0 10 1.5 18t2.5 10l2 3h369q6 -8 6 -31q0 -10 -1.5 -18t-3.5 -10l-1 -3h-369q-6 8 -6 31z" />
<glyph unicode="&#x2012;" horiz-adv-x="724" d="M172 594q0 10 1.5 18t2.5 10l2 3h369q6 -8 6 -31q0 -10 -1.5 -18t-3.5 -10l-1 -3h-369q-6 8 -6 31z" />
<glyph unicode="&#x2013;" horiz-adv-x="1155" d="M182 594q0 10 1.5 18t2.5 10l2 3h779q6 -8 6 -31q0 -10 -1.5 -18t-3.5 -10l-1 -3h-779q-6 8 -6 31z" />
<glyph unicode="&#x2014;" horiz-adv-x="1667" d="M182 594q0 10 1.5 18t2.5 10l2 3h1291q6 -8 6 -31q0 -10 -1.5 -18t-3.5 -10l-1 -3h-1291q-6 8 -6 31z" />
<glyph unicode="&#x2018;" horiz-adv-x="415" d="M152 1190v65q0 40 10 77.5t24 62t28 43.5t24 28l10 9l33 -25q-7 -6 -17 -18.5t-29.5 -56.5t-23.5 -93l39 -6v-86q-16 -6 -49 -6q-15 0 -27 1.5t-17 2.5z" />
<glyph unicode="&#x2019;" horiz-adv-x="407" d="M143 1208q6 6 16 18.5t29 56.5t23 93q-11 0 -20.5 1.5t-12.5 2.5l-4 2v86q16 7 49 7q15 0 27 -1.5t17 -3.5l5 -2v-65q0 -40 -10 -77.5t-24 -62t-28 -43.5t-24 -28l-10 -8z" />
<glyph unicode="&#x201a;" horiz-adv-x="405" d="M123 -168q6 6 16 18.5t28.5 56.5t22.5 93q-11 0 -20 1.5t-12 2.5l-4 2v86q16 6 49 6q15 0 27 -1.5t17 -2.5l5 -2v-65q0 -40 -10 -77.5t-24 -62t-28 -43.5t-24 -28l-10 -9z" />
<glyph unicode="&#x201c;" horiz-adv-x="620" d="M152 1190v65q0 40 10 77.5t24 62t28 43.5t24 28l10 9l33 -25q-7 -6 -17 -18.5t-29.5 -56.5t-23.5 -93l39 -6v-86q-16 -6 -49 -6q-15 0 -27 1.5t-17 2.5zM356 1190v65q0 40 10 77.5t24 62t28.5 43.5t24.5 28l10 9l32 -25q-2 -2 -6 -6.5t-15 -20.5t-19.5 -34t-17 -47 t-11.5 -60l39 -6v-86q-16 -6 -49 -6q-15 0 -27.5 1.5t-17.5 2.5z" />
<glyph unicode="&#x201d;" horiz-adv-x="612" d="M143 1208q6 6 16 18.5t29 56.5t23 93q-11 0 -20.5 1.5t-12.5 2.5l-4 2v86q16 7 49 7q15 0 27 -1.5t17 -3.5l5 -2v-65q0 -40 -10 -77.5t-24 -62t-28 -43.5t-24 -28l-10 -8zM348 1208q6 6 16 18.5t29 56.5t23 93q-11 0 -20.5 1.5t-13.5 2.5l-3 2v86q16 7 49 7q15 0 27 -1.5 t17 -3.5l5 -2v-65q0 -40 -10 -77.5t-24 -62t-28 -43.5t-24 -28l-10 -8z" />
<glyph unicode="&#x201e;" horiz-adv-x="616" d="M123 -168q6 6 16 18.5t28.5 56.5t22.5 93q-11 0 -20 1.5t-12 2.5l-4 2v86q16 6 49 6q15 0 27 -1.5t17 -2.5l5 -2v-65q0 -40 -10 -77.5t-24 -62t-28 -43.5t-24 -28l-10 -9zM334 -168q6 6 16 18.5t28.5 56.5t22.5 93q-11 0 -20 1.5t-13 2.5l-3 2v86q16 6 49 6q15 0 27 -1.5 t17 -2.5l5 -2v-65q0 -40 -10 -77.5t-24 -62t-28 -43.5t-24 -28l-10 -9z" />
<glyph unicode="&#x2022;" horiz-adv-x="569" d="M221 578q0 28 18.5 45.5t45.5 17.5q28 0 45.5 -17t17.5 -46q0 -28 -17.5 -45t-45.5 -17q-27 0 -45.5 17.5t-18.5 44.5z" />
<glyph unicode="&#x2026;" horiz-adv-x="1028" d="M162 6v86q16 6 49 6q15 0 27 -1.5t17 -2.5l5 -2v-86q-16 -6 -49 -6q-15 0 -27 1.5t-17 2.5zM465 6v86q16 6 49 6q15 0 27 -1.5t17 -2.5l5 -2v-86q-16 -6 -49 -6q-15 0 -27 1.5t-17 2.5zM768 6v86q16 6 49 6q15 0 27 -1.5t17 -2.5l5 -2v-86q-16 -6 -49 -6q-15 0 -27 1.5 t-17 2.5z" />
<glyph unicode="&#x202f;" horiz-adv-x="378" />
<glyph unicode="&#x2039;" horiz-adv-x="696" d="M113 553q0 8 1.5 15.5t3.5 10.5l1 3l424 460q26 -13 26 -51l-397 -438l397 -440q0 -39 -26 -52l-424 463q-6 11 -6 29z" />
<glyph unicode="&#x203a;" horiz-adv-x="696" d="M127 113l397 440l-397 438q0 37 27 51l424 -460q6 -11 6 -29q0 -8 -1.5 -15.5t-2.5 -10.5l-2 -3l-424 -463q-27 13 -27 52z" />
<glyph unicode="&#x205f;" horiz-adv-x="472" />
<glyph unicode="&#x20ac;" horiz-adv-x="1202" d="M122 510q-1 7 1 16q2 10 5 17.5t5 9.5l2 2h154q-4 82 -4 131q0 88 4 137h-164q-1 1 -1.5 3t-1.5 9.5t1 16.5q2 10 5 17.5t5 9.5l2 2h160q29 257 145 384.5t324 127.5q92 0 166.5 -15.5t102.5 -31.5l28 -15q4 -12 -4 -28q-4 -7 -8.5 -12.5t-7.5 -6.5l-3 -2q-11 6 -32 14.5 t-90 22.5t-142 14q-175 0 -278 -103.5t-131 -348.5h571q0 -1 0.5 -2.5t1.5 -8.5t0 -18q-2 -10 -5 -17.5t-5 -9.5l-2 -2h-568q-4 -86 -4 -139q0 -90 4 -129h494q1 0 1.5 -1.5t1.5 -8.5t-1 -19q-2 -10 -5 -17t-5 -9l-2 -2h-480q14 -129 48 -219t88.5 -141.5t121.5 -74 t154 -22.5q79 0 150.5 12.5t103.5 25.5l31 13q12 -4 18 -20q4 -8 5 -15t0 -11l-1 -3q-11 -7 -34 -17.5t-105 -28t-178 -17.5q-210 0 -326 127.5t-145 390.5h-168q-1 1 -1.5 3t-1.5 9z" />
<glyph unicode="&#x2122;" horiz-adv-x="1302" d="M100 1432q-11 26 0 43h416q13 -20 0 -43h-184v-541q-7 -6 -23 -6q-6 0 -11 1.5t-7 3.5l-2 1v541h-189zM631 891v577q6 7 24 7q5 0 9.5 -0.5t7 -1.5t4.5 -2.5t3 -2.5h1l190 -378l197 378q7 7 25 7q8 0 14 -1.5t8 -3.5l2 -2v-577q-6 -6 -18 -6q-6 0 -11.5 1.5t-7.5 3.5 l-2 1v514l-186 -356q-7 -7 -23 -7q-7 0 -12.5 2t-7.5 4l-2 1l-178 356v-514q-7 -6 -19 -6q-5 0 -9.5 1.5t-6.5 3.5z" />
<glyph unicode="&#x25fc;" horiz-adv-x="1075" d="M0 0v1075h1075v-1075h-1075z" />
</font>
</defs>
</svg>
