<?xml version="1.0" encoding="utf-8"?>
<!-- Generator: Adobe Illustrator 19.1.0, SVG Export Plug-In . SVG Version: 6.00 Build 0)  -->
<!DOCTYPE svg PUBLIC "-//W3C//DTD SVG 1.1//EN" "http://www.w3.org/Graphics/SVG/1.1/DTD/svg11.dtd">
<svg version="1.1" id="Layer_1" xmlns="http://www.w3.org/2000/svg" xmlns:xlink="http://www.w3.org/1999/xlink" x="0px" y="0px"
	 viewBox="-154 279.2 285.9 282.7" style="enable-background:new -154 279.2 285.9 282.7;" xml:space="preserve">
<style type="text/css">
	.st0{fill:#FFFFFF;}
</style>
<g>
	<g>
		<path class="st0" d="M101.4,552.3h-224.9c-10.8,0-19.7-8.8-19.7-19.7V308.5c0-10.8,8.8-19.7,19.7-19.7h224.8
			c10.8,0,19.7,8.8,19.7,19.7v224.1C121,543.5,112.2,552.3,101.4,552.3z M-123.5,293.7c-8.2,0-14.8,6.6-14.8,14.8v224.1
			c0,8.2,6.6,14.8,14.8,14.8h224.8c8.2,0,14.8-6.6,14.8-14.8V308.5c0-8.2-6.6-14.8-14.8-14.8C101.3,293.7-123.5,293.7-123.5,293.7z"
			/>
	</g>
	<g>
		<g>
			<path class="st0" d="M13.7,526.9c-7.6,0-15.2-5.3-15.2-15.5V333.5c0-8.2-5.1-11.8-10.1-11.8s-10.3,3.7-10.3,11.8v177.9
				c0,10.1-7.5,15.4-15,15.4S-52,521.5-52,511.4V406.8c0-7.1-5.3-10.4-10.2-10.4c-5.1,0-10.2,3.2-10.2,10.4v104.6
				c0,10-7.6,15.3-15.1,15.3s-15.1-5.2-15.1-15.3V369c0-1.3,1.1-2.4,2.4-2.4s2.4,1.1,2.4,2.4v142.4c0,7.2,5.1,10.4,10.2,10.4
				s10.2-3.2,10.2-10.4V406.8c0-10,7.6-15.2,15-15.2c7.5,0,15.1,5.2,15.1,15.2v104.6c0,7.2,5.3,10.5,10.3,10.5s10.1-3.3,10.1-10.5
				V333.5c0-11,7.6-16.7,15.2-16.7c9.8,0,15,8.4,15,16.7v177.9c0,7.3,5.4,10.7,10.4,10.7s10-3.3,10-10.7V406.8
				c0-10,7.6-15.3,15.1-15.3s15.1,5.2,15.1,15.3v104.6c0,7.2,5.1,10.4,10.2,10.4s10.2-3.2,10.2-10.4V406.9v-0.1v-90
				c0-1,0.6-1.9,1.5-2.2c0.9-0.4,1.9-0.2,2.6,0.5c0.4,0.4,10.3,10.3,15.3,26.8c4.6,15.1,5.8,38.7-14.6,65.8v103.8
				c0,10-7.6,15.3-15.1,15.3s-15.1-5.2-15.1-15.3V406.9c0-7.2-5.1-10.4-10.2-10.4c-5.1,0-10.2,3.2-10.2,10.4v104.6
				C28.6,522,20.9,526.9,13.7,526.9z M79.1,323.4v75.7c12.2-18.7,15.6-37.5,9.9-56C86.4,334.4,82.2,327.6,79.1,323.4z"/>
		</g>
		<g>
			<path class="st0" d="M-100.1,371.3c-4.9,0-9.2-1.8-12.6-5.3c-4.5-4.7-6.2-11.3-6-15.8c0.3-6.3,3.2-32.6,3.3-33.7
				c0.1-1.3,1.3-2.3,2.7-2.2c1.3,0.1,2.3,1.3,2.2,2.7c0,0.3-3,27.3-3.3,33.5c-0.2,3.5,1.4,8.8,4.6,12.2c2.4,2.5,5.4,3.8,9,3.8
				c1.3,0,2.4,1.1,2.4,2.4C-97.8,370.2-98.7,371.3-100.1,371.3z"/>
		</g>
		<g>
			<path class="st0" d="M-100.1,371.3c-1.3,0-2.4-1.1-2.4-2.4c0-1.3,1.1-2.4,2.4-2.4c3.6,0,6.6-1.3,9-3.8c3.3-3.5,4.8-8.8,4.6-12.2
				c-0.3-6.1-3.3-33.2-3.3-33.5c-0.1-1.3,0.8-2.5,2.2-2.7c1.3-0.1,2.5,0.8,2.7,2.2c0.1,1.1,3,27.5,3.3,33.7c0.2,4.5-1.5,11.1-6,15.8
				C-90.8,369.5-95.2,371.3-100.1,371.3z"/>
		</g>
		<g>
			<path class="st0" d="M-84,352.7h-32.2c-1.3,0-2.4-1.1-2.4-2.4c0-1.3,1.1-2.4,2.4-2.4H-84c1.3,0,2.4,1.1,2.4,2.4
				C-81.6,351.6-82.6,352.7-84,352.7z"/>
		</g>
		<g>
			<path class="st0" d="M-100.1,352.7c-1.3,0-2.4-1.1-2.4-2.4v-33.6c0-1.3,1.1-2.4,2.4-2.4s2.4,1.1,2.4,2.4v33.6
				C-97.6,351.6-98.7,352.7-100.1,352.7z"/>
		</g>
	</g>
</g>
</svg>
